<?xml version="1.0" encoding="utf-8"?>
<!-- Generator: Adobe Illustrator 23.0.2, SVG Export Plug-In . SVG Version: 6.00 Build 0)  -->
<svg version="1.1" id="Calque_1" xmlns="http://www.w3.org/2000/svg" xmlns:xlink="http://www.w3.org/1999/xlink" x="0px" y="0px"
	 viewBox="0 0 1597 707.2" style="enable-background:new 0 0 1597 707.2;" xml:space="preserve">
<style type="text/css">
	.st0{display:none;fill:#9E9E9E;stroke:#000000;stroke-miterlimit:10;}
	.st1{display:none;}
	.st2{display:inline;}
	.st3{clip-path:url(#SVGID_2_);}
	.st4{display:none;fill:#FFFFFF;}
	.st5{fill:#FFFFFF;}
	.st6{clip-path:url(#SVGID_4_);}
	.st7{fill:#9CD4D6;}
	.st8{fill:url(#SVGID_5_);}
	.st9{fill:#CCE8EA;}
	.st10{fill:url(#SVGID_6_);}
</style>
<rect x="-33.7" y="-85.5" class="st0" width="2172.3" height="986.6"/>
<title>clouds</title>
<g class="st1">
	<g id="Calque_1-2" class="st2">
		<g>
			<g>
				<g>
					<g>
						<defs>
							<rect id="SVGID_1_" x="-12" y="-72.9" width="1500.5" height="990.6"/>
						</defs>
						<clipPath id="SVGID_2_">
							<use xlink:href="#SVGID_1_"  style="overflow:visible;"/>
						</clipPath>
						<g class="st3">
							<path class="st4" d="M-12,405.4c0,0,59.2-103.7,131.6-17.7c0,0,55.5-40.5,60.2,17.7c4.7,58.3-54.5,67.4-54.5,67.4
								s80.9-37.6,98.7,21.1c17.9,58.7-71.5,117.1-170.2,70.4c0,0-11.3,42.3-65.8,45.8V405.4L-12,405.4z"/>
							<path class="st5" d="M1406.7,51.8c0,0-59.2-103.7-131.6-17.7c0,0-55.5-40.5-60.2,17.7c-4.7,58.3,54.5,67.4,54.5,67.4
								s-80.9-37.6-98.7,21.1c-17.9,58.7,71.5,117.2,170.2,70.4c0,0,11.3,42.3,65.8,45.8L1406.7,51.8L1406.7,51.8z"/>
						</g>
					</g>
				</g>
			</g>
		</g>
	</g>
</g>
<g id="haut">
	<g id="nuage_new">
		<path class="st5" d="M1589.7,149.1c-18.2-43.3-53.5-24.7-53.5-24.7c-34.1-104.3-105.2-33-105.2-33S1373.5-3,1303.3,75.3
			c0,0-53.8-36.9-58.4,16.1c-2.7,30.9,15.8,46.7,31.7,54.4c-24.5-6.1-63-9.3-74.6,26.2c-17.3,53.4,69.3,106.6,165.1,64.1
			c0,0,10.9,38.4,63.9,41.6c77.2,4.1,95.5-61.1,95.5-61.1C1579,249.3,1607.9,192.3,1589.7,149.1z"/>
	</g>
	<g id="planes">
		<g id="Calque_1-2_1_">
			<g>
				<g>
					<g>
						<g>
							<defs>
								<rect id="SVGID_3_" x="1.9" y="-5.3" width="1455.7" height="901"/>
							</defs>
							<clipPath id="SVGID_4_">
								<use xlink:href="#SVGID_3_"  style="overflow:visible;"/>
							</clipPath>
							<g class="st6">
								<polygon class="st7" points="1369.2,141.2 1300,126.4 1387.4,130.7 								"/>
								<polygon class="st7" points="1356.9,148.4 1300,126.4 1328.4,163.1 								"/>
								
									<linearGradient id="SVGID_5_" gradientUnits="userSpaceOnUse" x1="3963.9114" y1="438.7095" x2="3977.7559" y2="458.8745" gradientTransform="matrix(-1 0 0 1 5310.2197 -308.89)">
									<stop  offset="0" style="stop-color:#BED2D8"/>
									<stop  offset="1" style="stop-color:#728B89"/>
								</linearGradient>
								<polygon class="st8" points="1369.2,141.2 1366.2,171.8 1356.9,148.4 1300,126.4 								"/>
								<polygon class="st9" points="1366.2,171.8 1345.5,154.3 1356.9,148.4 								"/>
								<polygon class="st7" points="1419.3,180 1390.5,161.7 1429.3,178.4 								"/>
								<polygon class="st7" points="1412.6,181.2 1390.5,161.7 1397.1,183.1 								"/>
								
									<linearGradient id="SVGID_6_" gradientUnits="userSpaceOnUse" x1="3802.1777" y1="692.3921" x2="3808.8892" y2="702.1667" gradientTransform="matrix(-0.94 -0.35 -0.35 0.94 5225.3799 852.2799)">
									<stop  offset="0" style="stop-color:#BED2D8"/>
									<stop  offset="1" style="stop-color:#728B89"/>
								</linearGradient>
								<polygon class="st10" points="1419.3,180 1412.8,193.4 1412.6,181.2 1390.5,161.7 								"/>
								<polygon class="st9" points="1412.8,193.4 1406.3,182 1412.6,181.2 								"/>
							</g>
						</g>
					</g>
				</g>
			</g>
		</g>
	</g>
</g>
<g id="bas">
	<path class="st5" d="M254.3,468.8c-20-47.5-58.7-27.1-58.7-27.1C158.3,327,80.3,405.4,80.3,405.4s-63-103.7-140-17.7
		c0,0-59-40.5-64,17.7c-2.9,34,17.4,51.3,34.7,59.8c-26.9-6.8-69.1-10.3-81.7,28.7c-19,58.7,76,117.2,181,70.4c0,0,12,42.3,70,45.8
		c84.7,4.6,104.7-67,104.7-67C242.7,579.1,274.3,516.4,254.3,468.8z"/>
</g>
</svg>
