<?xml version="1.0" encoding="utf-8"?>
<!-- Generator: Adobe Illustrator 23.0.2, SVG Export Plug-In . SVG Version: 6.00 Build 0)  -->
<svg version="1.1" id="Calque_1" xmlns="http://www.w3.org/2000/svg" xmlns:xlink="http://www.w3.org/1999/xlink" x="0px" y="0px"
	 viewBox="0 0 1597 707.2" style="enable-background:new 0 0 1597 707.2;" xml:space="preserve">
<style type="text/css">
	.st0{clip-path:url(#SVGID_2_);}
	.st1{fill:#FFFFFF;}
	.st2{clip-path:url(#SVGID_4_);}
	.st3{fill:#9CD4D6;}
	.st4{fill:url(#SVGID_5_);}
	.st5{fill:#CCE8EA;}
	.st6{fill:url(#SVGID_6_);}
</style>
<title>clouds</title>
<g>
	<g id="Calque_1-2">
		<g>
			<g>
				<defs>
					<rect id="SVGID_1_" x="48.3" y="-72.9" width="1500.5" height="990.6"/>
				</defs>
				<clipPath id="SVGID_2_">
					<use xlink:href="#SVGID_1_"  style="overflow:visible;"/>
				</clipPath>
				<g class="st0">
					<path class="st1" d="M48.3,405.4c0,0,59.2-103.7,131.6-17.7c0,0,55.5-40.5,60.2,17.7c4.7,58.3-54.5,67.4-54.5,67.4
						s80.9-37.6,98.7,21.1c17.9,58.7-71.5,117.1-170.2,70.4c0,0-11.3,42.3-65.8,45.8L48.3,405.4L48.3,405.4z"/>
					<path class="st1" d="M1467,51.8c0,0-59.2-103.7-131.6-17.7c0,0-55.5-40.5-60.2,17.7c-4.7,58.3,54.5,67.4,54.5,67.4
						s-80.9-37.6-98.7,21.1c-17.9,58.7,71.5,117.2,170.2,70.4c0,0,11.3,42.3,65.8,45.8L1467,51.8L1467,51.8z"/>
				</g>
			</g>
		</g>
	</g>
</g>
<g>
	<g id="Calque_1-2_1_">
		<g>
			<g>
				<defs>
					<rect id="SVGID_3_" x="-104.6" y="-45.1" width="1595.8" height="990.6"/>
				</defs>
				<clipPath id="SVGID_4_">
					<use xlink:href="#SVGID_3_"  style="overflow:visible;"/>
				</clipPath>
				<g class="st2">
					<polygon class="st3" points="1394.3,115.9 1318.4,99.7 1414.2,104.4 					"/>
					<polygon class="st3" points="1380.8,123.8 1318.4,99.7 1349.6,140 					"/>
					
						<linearGradient id="SVGID_5_" gradientUnits="userSpaceOnUse" x1="1968.9878" y1="330.3613" x2="1984.1678" y2="352.4713" gradientTransform="matrix(-1 0 0 1 3338.22 -226.89)">
						<stop  offset="0" style="stop-color:#BED2D8"/>
						<stop  offset="1" style="stop-color:#728B89"/>
					</linearGradient>
					<polygon class="st4" points="1394.3,115.9 1391,149.6 1380.8,123.8 1318.4,99.7 					"/>
					<polygon class="st5" points="1391,149.6 1368.3,130.3 1380.8,123.8 					"/>
					<polygon class="st3" points="1449.2,158.6 1417.6,138.5 1460.2,156.8 					"/>
					<polygon class="st3" points="1441.8,159.9 1417.6,138.5 1424.9,162 					"/>
					
						<linearGradient id="SVGID_6_" gradientUnits="userSpaceOnUse" x1="1904.1506" y1="242.0021" x2="1911.4906" y2="252.6921" gradientTransform="matrix(-0.94 -0.35 -0.35 0.94 3312.54 589.1799)">
						<stop  offset="0" style="stop-color:#BED2D8"/>
						<stop  offset="1" style="stop-color:#728B89"/>
					</linearGradient>
					<polygon class="st6" points="1449.2,158.6 1442.1,173.3 1441.8,159.9 1417.6,138.5 					"/>
					<polygon class="st5" points="1442.1,173.3 1435,160.8 1441.8,159.9 					"/>
				</g>
			</g>
		</g>
	</g>
</g>
</svg>
