<svg xmlns="http://www.w3.org/2000/svg" xmlns:xlink="http://www.w3.org/1999/xlink" viewBox="0 0 1623.81 275.61"><defs><style>.cls-1{fill:none;}.cls-2{clip-path:url(#clip-path);}.cls-3{fill:#459681;}.cls-4{fill:#a4d1a5;}.cls-5{fill:#8dc044;}.cls-6{fill:#1d8d37;}</style><clipPath id="clip-path" transform="translate(-8.52 -796.5)"><rect class="cls-1" width="1595.79" height="993"/></clipPath></defs><title>foreground</title><g id="Calque_2" data-name="Calque 2"><g id="Calque_1-2" data-name="Calque 1"><g class="cls-2"><path class="cls-1" d="M72.55,958.5c.44-4.42.83-8.2,1.22-11.46a194.87,194.87,0,0,0-38.56,46h3.36l-1.21-.52S68.91,994.9,72.55,958.5Z" transform="translate(-8.52 -796.5)"/><path class="cls-3" d="M125.51,900h-.06c.26-1.48.45-2.91.59-4.29a52,52,0,0,1-23.76,30.67c-5.07,3-9.84,6.18-14.33,9.42,2.86,4.81,6.82,13.22,6.8,22.88C102.79,941.76,114.18,920.44,125.51,900Z" transform="translate(-8.52 -796.5)"/><path class="cls-3" d="M180.54,882.06c-26.69-12.14,27.91-32.76,1.22-64.31s-32.77,9.7-40,31.55c-3.5,10.51-9.54,11.74-16.48,12a58.32,58.32,0,0,1,2.12,28.8,59.32,59.32,0,0,1-.53,7.56c19.15-34.49,37.75-65.93,39.34-68.6l.86.51c-.28.47-9.91,16.74-22.5,38.79,11.65-12.19,32.06-15.84,32.3-15.88l.17,1c-.28.05-28.17,5-36.85,22.78l-.09,0c-8.26,14.57-17.39,30.94-25.82,46.68,14.34-16.79,36.92-17,37.19-17v1c-.29,0-28.2.31-41.21,23.57l-1.08,2.05c-.32.65-.64,1.3-.93,2l-.09,0c-13,24.84-23.12,46.35-23.53,53.86l-1-.06c.26-4.74,4.19-14.72,10.19-27.5h-.08c.65-10.23-3.56-19.29-6.56-24.34-4.77,3.49-9.22,7.07-13.36,10.69-.39,3.26-.78,7-1.22,11.46-3.64,36.4-35.19,34-35.19,34l1.21.52h74.89c10.54-4.85,16.8-11.4,10.05-19.94-18.2-23,48.54-18.2,31.55-41.25S207.24,894.19,180.54,882.06Z" transform="translate(-8.52 -796.5)"/><path class="cls-4" d="M125.51,900c-11.33,20.46-22.72,41.78-30.76,58.67,0,.69,0,1.4-.06,2.11l-.92-.06c-6,12.78-9.93,22.76-10.19,27.5l1,.06c.41-7.51,10.53-29,23.53-53.86l-.83-.37a44.15,44.15,0,0,1,7-11.18c8.43-15.74,17.56-32.11,25.82-46.68l-.81-.4a29.59,29.59,0,0,1,5.28-7.45c12.59-22.05,22.22-38.32,22.5-38.79l-.86-.51c-1.59,2.67-20.19,34.11-39.34,68.6q-.16,1.23-.39,2.52Z" transform="translate(-8.52 -796.5)"/><path class="cls-4" d="M110.21,930.4c-.37.67-.73,1.35-1.08,2.05Z" transform="translate(-8.52 -796.5)"/><path class="cls-4" d="M140.14,876.21c8.68-17.76,36.57-22.73,36.85-22.78l-.17-1c-.24,0-20.65,3.69-32.3,15.88l-4.47,7.85Z" transform="translate(-8.52 -796.5)"/><path class="cls-4" d="M140.05,876.17l4.47-7.85a29.59,29.59,0,0,0-5.28,7.45Z" transform="translate(-8.52 -796.5)"/><path class="cls-4" d="M125.45,900h.06c.43-.79.87-1.58,1.31-2.36a59.32,59.32,0,0,0,.53-7.56,57.22,57.22,0,0,1-1.31,5.62C125.9,897.06,125.71,898.49,125.45,900Z" transform="translate(-8.52 -796.5)"/><path class="cls-4" d="M126.43,900.14q.22-1.29.39-2.52c-.44.78-.88,1.57-1.31,2.36Z" transform="translate(-8.52 -796.5)"/><path class="cls-4" d="M151.42,906.83v-1c-.27,0-22.85.23-37.19,17q-2,3.81-4,7.55C123.22,907.14,151.13,906.83,151.42,906.83Z" transform="translate(-8.52 -796.5)"/><path class="cls-4" d="M108.2,934.43c.29-.68.61-1.33.93-2l-1,1.95Z" transform="translate(-8.52 -796.5)"/><path class="cls-4" d="M108.11,934.4l1-1.95c.35-.7.71-1.38,1.08-2.05q2-3.74,4-7.55a44.15,44.15,0,0,0-7,11.18Z" transform="translate(-8.52 -796.5)"/><path class="cls-4" d="M88,935.77l-.82.58c3,5,7.21,14.11,6.56,24.34h.08l1-2.05C94.77,949,90.81,940.58,88,935.77Z" transform="translate(-8.52 -796.5)"/><path class="cls-4" d="M94.75,958.65l-1,2.05.92.06C94.73,960.05,94.75,959.34,94.75,958.65Z" transform="translate(-8.52 -796.5)"/><path class="cls-5" d="M73.77,947c1.71-14.29,3.44-18.5,9.79-22.95-18.13,1-59.72,5.61-65.74,27.06l-.36-.1a122.88,122.88,0,0,0,.37,38.31l-1,.16c-3.81-23.45-.94-43.73,5.28-60.84l-.16,0a104.31,104.31,0,0,1,2.78-39.51l1,.3A103.49,103.49,0,0,0,22.77,927a127.5,127.5,0,0,1,18-32l0,0,.11-.07a146,146,0,0,1,10.86-12.59c2.1-2.17,4.22-4.23,6.33-6.19-1.46-12.77,8.77-32.3,9.21-33.14l.89.47C68,843.66,58,862.79,59,875.3a170.14,170.14,0,0,1,39.47-27.07l.41.92A169.88,169.88,0,0,0,52.41,883c-3.07,3.17-6.19,6.69-9.25,10.54,23.36-12.5,62.46-4.21,62.87-4.12l-.22,1c-.41-.09-41.61-8.82-64.28,5.24A121.26,121.26,0,0,0,18,947.8c9.41-20.4,50.77-24.16,67.24-24.84,4-2.56,9.63-5.47,17.64-10.57,26.69-17-15.78-27.91-1.22-43.68,7.55-8.18,16.08-7.22,23.56-7.45-9.58-28.26-40.9-45-80-5.29C-4.27,906.36,7.17,964.2,17.66,993H35.21A194.87,194.87,0,0,1,73.77,947Z" transform="translate(-8.52 -796.5)"/><path class="cls-5" d="M68.14,843.46l-.89-.47c-.44.84-10.67,20.37-9.21,33.14l.92-.83C58,862.79,68,843.66,68.14,843.46Z" transform="translate(-8.52 -796.5)"/><path class="cls-5" d="M101.67,868.71c-14.56,15.77,27.91,26.69,1.22,43.68-8,5.1-13.61,8-17.64,10.57,3.76-.15,6.23-.15,6.72-.15v1c-.14,0-3.36,0-8.4.28-6.35,4.45-8.08,8.66-9.79,22.95,4.14-3.62,8.59-7.2,13.36-10.69a41.24,41.24,0,0,0-2.83-4.23l.77-.63A40.45,40.45,0,0,1,88,935.77c4.49-3.24,9.26-6.4,14.33-9.42A52,52,0,0,0,126,895.68c1.8-17.52-5.27-26.56-5.34-26.66l.78-.62c.29.35,5.91,7.53,5.87,21.66a58.32,58.32,0,0,0-2.12-28.8C117.75,861.49,109.22,860.53,101.67,868.71Z" transform="translate(-8.52 -796.5)"/><path class="cls-5" d="M121.48,868.4l-.78.62c.07.1,7.14,9.14,5.34,26.66a57.22,57.22,0,0,0,1.31-5.62C127.39,875.93,121.77,868.75,121.48,868.4Z" transform="translate(-8.52 -796.5)"/><path class="cls-5" d="M85.07,931.49l-.77.63a41.24,41.24,0,0,1,2.83,4.23l.82-.58A40.45,40.45,0,0,0,85.07,931.49Z" transform="translate(-8.52 -796.5)"/><path class="cls-6" d="M52.41,883a169.88,169.88,0,0,1,46.43-33.89l-.41-.92A170.14,170.14,0,0,0,59,875.3c0,.41.07.82.13,1.23l-1,.14-.06-.54c-2.11,2-4.23,4-6.33,6.19a146,146,0,0,0-10.86,12.59c.75-.47,1.52-.91,2.31-1.33C46.22,889.73,49.34,886.21,52.41,883Z" transform="translate(-8.52 -796.5)"/><path class="cls-6" d="M18,947.8a121.26,121.26,0,0,1,23.52-52.13l-.26.16-.51-.81a127.5,127.5,0,0,0-18,32c.06.53.12,1,.19,1.58l-.83.11c-6.22,17.11-9.09,37.39-5.28,60.84l1-.16a122.88,122.88,0,0,1-.37-38.31l-.6-.17A20.69,20.69,0,0,1,18,947.8Z" transform="translate(-8.52 -796.5)"/><path class="cls-6" d="M59.09,876.53c-.06-.41-.1-.82-.13-1.23l-.92.83.06.54Z" transform="translate(-8.52 -796.5)"/><path class="cls-6" d="M105.81,890.43l.22-1c-.41-.09-39.51-8.38-62.87,4.12-.55.68-1.09,1.38-1.63,2.09C64.2,881.61,105.4,890.34,105.81,890.43Z" transform="translate(-8.52 -796.5)"/><path class="cls-6" d="M40.74,895l0,0,.09-.11Z" transform="translate(-8.52 -796.5)"/><path class="cls-6" d="M41.53,895.67c.54-.71,1.08-1.41,1.63-2.09-.79.42-1.56.86-2.31,1.33l-.09.11.51.81Z" transform="translate(-8.52 -796.5)"/><path class="cls-6" d="M25.71,889.49l-1-.3A104.31,104.31,0,0,0,22,928.7l.16,0c.21-.57.43-1.13.64-1.69A103.49,103.49,0,0,1,25.71,889.49Z" transform="translate(-8.52 -796.5)"/><path class="cls-6" d="M22.77,927c-.21.56-.43,1.12-.64,1.69l.83-.11C22.89,928,22.83,927.52,22.77,927Z" transform="translate(-8.52 -796.5)"/><path class="cls-6" d="M18,947.8c-.2,1.08-.39,2.16-.55,3.25l.36.1c6-21.45,47.61-26.06,65.74-27.06.53-.37,1.09-.75,1.69-1.13C68.78,923.64,27.42,927.4,18,947.8Z" transform="translate(-8.52 -796.5)"/><path class="cls-6" d="M92,922.81c-.49,0-3,0-6.72.15-.6.38-1.16.76-1.69,1.13,5-.28,8.26-.27,8.4-.28Z" transform="translate(-8.52 -796.5)"/><path class="cls-6" d="M16.86,950.88l.6.17c.16-1.09.35-2.17.55-3.25A20.69,20.69,0,0,0,16.86,950.88Z" transform="translate(-8.52 -796.5)"/><circle class="cls-5" cx="101.27" cy="8.5" r="8.5"/><polygon class="cls-5" points="1623.33 275.47 1623.33 275.47 1623.33 275.47 1623.33 275.47"/><path class="cls-6" d="M1631.38,1072.11l.47-.14-.67-.48Z" transform="translate(-8.52 -796.5)"/><path class="cls-6" d="M1632.33,1071.82c0-.06-.27-.88-.75-2.35.18,1.62.27,2.49.27,2.5Z" transform="translate(-8.52 -796.5)"/><path class="cls-5" d="M1578.79,993h17V980.17q-2-4.29-4-8.58c-4-8.5-8.48-17.3-13.24-26-12.59-9.78-35.42-19.6-72.81-11.1a8.49,8.49,0,0,1-2.19.4l.12-1c.17,0,.95-.18,1.85-.38,36.08-8.21,58.78.51,71.86,10-20.42-36.83-46.52-71-73-71h-.73l0-1c15.06-.33,31.21,10,48,30.78,3.63,4.49,7.3,9.5,11,15,2.26-13.1-5.17-47.24-5.24-47.59l1-.22c.33,1.49,7.93,36.44,5.05,49,9.65,14.44,19.46,32.1,29.3,52.79q1.57,3.3,3.1,6.6V913.9c-19.72-49.15-48.87-84.57-90.66-59-51.63,31.56-14,89.88,33.28,138.12h29.46A72.24,72.24,0,0,1,1578.79,993Z" transform="translate(-8.52 -796.5)"/><path class="cls-6" d="M1592.69,971.17c-9.84-20.69-19.65-38.35-29.3-52.79a1.7,1.7,0,0,1,0,.22l-1-.24c.09-.36.16-.74.23-1.14-3.69-5.47-7.36-10.48-11-15-16.79-20.79-32.94-31.11-48-30.78l0,1h.73c26.49,0,52.59,34.19,73,71,.66.47,1.3.95,1.9,1.42l-.61.79-.12-.09c4.76,8.69,9.19,17.49,13.24,26q2,4.29,4,8.58v-2.4Q1594.26,974.47,1592.69,971.17Z" transform="translate(-8.52 -796.5)"/><path class="cls-6" d="M1558.34,869.41l-1,.22c.07.35,7.5,34.49,5.24,47.59l.78,1.16C1566.27,905.85,1558.67,870.9,1558.34,869.41Z" transform="translate(-8.52 -796.5)"/><path class="cls-6" d="M1563.35,918.6a1.7,1.7,0,0,0,0-.22l-.78-1.16c-.07.4-.14.78-.23,1.14Z" transform="translate(-8.52 -796.5)"/><path class="cls-6" d="M1505.52,933.53c-.9.2-1.68.38-1.85.38l-.12,1a8.49,8.49,0,0,0,2.19-.4c37.39-8.5,60.22,1.32,72.81,11.1l-1.17-2.12C1564.3,934,1541.6,925.32,1505.52,933.53Z" transform="translate(-8.52 -796.5)"/><path class="cls-6" d="M1579.28,944.9c-.6-.47-1.24-.95-1.9-1.42l1.17,2.12.12.09Z" transform="translate(-8.52 -796.5)"/></g></g></g></svg>