<?xml version="1.0" encoding="utf-8"?>
<!-- Generator: Adobe Illustrator 23.0.2, SVG Export Plug-In . SVG Version: 6.00 Build 0)  -->
<svg version="1.1" id="Calque_1" xmlns="http://www.w3.org/2000/svg" xmlns:xlink="http://www.w3.org/1999/xlink" x="0px" y="0px"
	 viewBox="0 0 1597 921.4" style="enable-background:new 0 0 1597 921.4;" xml:space="preserve">
<style type="text/css">
	.st0{display:none;}
	.st1{display:inline;}
	.st2{clip-path:url(#SVGID_2_);}
	.st3{fill:#FFFFFF;}
	.st4{clip-path:url(#SVGID_4_);}
	.st5{fill:#B3B3B3;}
	.st6{fill:#6EC6D9;}
	.st7{fill:#EE7AAA;}
	.st8{fill:#D4155B;}
	.st9{fill:#EB5B27;}
	.st10{fill:#C1282E;}
	.st11{fill:#2BABE2;}
	.st12{fill:#C7B29A;}
	.st13{fill:url(#SVGID_5_);}
	.st14{fill:url(#SVGID_6_);}
	.st15{clip-path:url(#SVGID_8_);}
	.st16{fill:#DAEFF9;}
	.st17{fill:#ECF7FC;}
	.st18{fill:#FCE6F0;}
	.st19{fill:#FFF1DE;}
	.st20{fill:#F9F6C6;}
	.st21{fill:#FDE5D1;}
</style>
<title>clouds</title>
<g class="st0">
	<g id="Calque_1-2" class="st1">
		<g>
			<g>
				<defs>
					<rect id="SVGID_1_" x="1.2" y="141.3" width="1595.8" height="990.6"/>
				</defs>
				<clipPath id="SVGID_2_">
					<use xlink:href="#SVGID_1_"  style="overflow:visible;"/>
				</clipPath>
				<g class="st2">
					<path class="st3" d="M0,716.6c0,0,63-103.7,140-17.7c0,0,59-40.5,64,17.7S146,784,146,784s86-37.6,105,21.1s-76,117.1-181,70.4
						c0,0-12,42.3-70,45.8V716.6z"/>
					<path class="st3" d="M1597,266c0,0-63-103.7-140-17.7c0,0-59-40.5-64,17.7s58,67.4,58,67.4s-86-37.6-105,21.1
						s76,117.2,181,70.4c0,0,12,42.3,70,45.8V266z"/>
				</g>
			</g>
		</g>
	</g>
</g>
<g class="st0">
	<g class="st1">
		<g id="Calque_1-2_1_">
			<g>
				<g>
					<defs>
						<rect id="SVGID_3_" x="0.6" width="1596.4" height="921.4"/>
					</defs>
					<clipPath id="SVGID_4_">
						<use xlink:href="#SVGID_3_"  style="overflow:visible;"/>
					</clipPath>
					<g class="st4">
						<g>
							<polygon class="st5" points="160,221.8 119.8,149.1 160,76.5 199.3,149.1 							"/>
							<polygon class="st6" points="199.7,149.1 159.5,76.5 199.7,3.8 239,76.5 							"/>
							<polygon class="st5" points="120.3,149.1 80.1,76.5 120.3,3.8 159.5,76.5 							"/>
							<polygon class="st5" points="279.2,294.5 239,221.8 279.2,149.1 318.5,221.8 							"/>
							<polygon class="st5" points="318.9,221.8 278.7,149.1 318.9,76.5 358.2,149.1 							"/>
							<polygon class="st5" points="239.5,221.8 199.3,149.1 239.5,76.5 278.7,149.1 							"/>
							<polygon class="st7" points="1.1,220.4 -39.1,147.7 1.1,75 40.3,147.7 							"/>
							<polygon class="st8" points="40.8,147.7 0.6,75 40.8,2.4 80.1,75 							"/>
							<polygon class="st5" points="-38.6,147.7 -78.9,75 -38.6,2.4 0.6,75 							"/>
							<polygon class="st9" points="80.5,367.1 40.3,294.5 80.5,221.8 119.8,294.5 							"/>
							<polygon class="st10" points="120.3,294.5 80.1,221.8 120.3,149.1 159.5,221.8 							"/>
							<polygon class="st11" points="40.8,294.5 0.6,221.8 40.8,149.1 80.1,221.8 							"/>
							<polygon class="st5" points="358.7,149.1 318.5,76.5 358.7,3.8 397.9,76.5 							"/>
							<polygon class="st5" points="398.4,76.5 358.2,3.8 398.4,-68.9 437.7,3.8 							"/>
							<polygon class="st5" points="318.9,76.5 278.7,3.8 318.9,-68.9 358.2,3.8 							"/>
							<polygon class="st8" points="397.9,369.2 357.7,296.6 397.9,223.9 437.2,296.6 							"/>
							<polygon class="st5" points="437.6,296.6 397.4,223.9 437.6,151.2 476.9,223.9 							"/>
							<polygon class="st12" points="358.2,296.6 318,223.9 358.2,151.2 397.4,223.9 							"/>
						</g>
						<g>
							<polygon class="st5" points="1467,868.5 1424.1,791.1 1467,713.7 1508.8,791.1 							"/>
							<polygon class="st6" points="1509.3,791.1 1466.5,713.7 1509.3,636.3 1551.1,713.7 							"/>
							<polygon class="st5" points="1424.6,791.1 1381.8,713.7 1424.6,636.3 1466.5,713.7 							"/>
							<polygon class="st5" points="1593.9,945.9 1551.1,868.5 1593.9,791.1 1635.7,868.5 							"/>
							<polygon class="st5" points="1636.3,868.5 1593.4,791.1 1636.3,713.7 1678.1,791.1 							"/>
							<polygon class="st5" points="1551.6,868.5 1508.8,791.1 1551.6,713.7 1593.4,791.1 							"/>
							<polygon class="st7" points="1297.7,867 1254.9,789.6 1297.7,712.2 1339.5,789.6 							"/>
							<polygon class="st8" points="1340,789.6 1297.2,712.2 1340,634.8 1381.8,712.2 							"/>
							<polygon class="st5" points="1255.4,789.6 1212.5,712.2 1255.4,634.8 1297.2,712.2 							"/>
							<polygon class="st9" points="1382.3,1023.3 1339.5,945.9 1382.3,868.5 1424.1,945.9 							"/>
							<polygon class="st10" points="1424.6,945.9 1381.8,868.5 1424.6,791.1 1466.5,868.5 							"/>
							<polygon class="st11" points="1340,945.9 1297.2,868.5 1340,791.1 1381.8,868.5 							"/>
							<polygon class="st5" points="1678.6,791.1 1635.7,713.7 1678.6,636.3 1720.4,713.7 							"/>
							<polygon class="st5" points="1720.9,713.7 1678.1,636.3 1720.9,558.9 1762.7,636.3 							"/>
							<polygon class="st5" points="1636.3,713.7 1593.4,636.3 1636.3,558.9 1678.1,636.3 							"/>
							<polygon class="st8" points="1720.4,1025.5 1677.5,948.1 1720.4,870.7 1762.2,948.1 							"/>
							<polygon class="st5" points="1762.7,948.1 1719.9,870.7 1762.7,793.3 1804.5,870.7 							"/>
							<polygon class="st12" points="1678,948.1 1635.2,870.7 1678,793.3 1719.9,870.7 							"/>
						</g>
						
							<linearGradient id="SVGID_5_" gradientUnits="userSpaceOnUse" x1="258" y1="-355.9219" x2="258" y2="-74.0275" gradientTransform="matrix(1 0 0 1 0 346.3829)">
							<stop  offset="0" style="stop-color:#AEDCE7;stop-opacity:0.6"/>
							<stop  offset="1" style="stop-color:#D1E4BA;stop-opacity:0.6"/>
						</linearGradient>
						<ellipse class="st13" cx="258" cy="119.4" rx="147.6" ry="137"/>
						
							<linearGradient id="SVGID_6_" gradientUnits="userSpaceOnUse" x1="1557.3" y1="257.4841" x2="1557.3" y2="423.7507" gradientTransform="matrix(1 0 0 1 0 346.3829)">
							<stop  offset="0" style="stop-color:#AEDCE7;stop-opacity:0.6"/>
							<stop  offset="1" style="stop-color:#D1E4BA;stop-opacity:0.6"/>
						</linearGradient>
						<ellipse class="st14" cx="1557.3" cy="679.9" rx="87" ry="80.8"/>
					</g>
				</g>
			</g>
		</g>
	</g>
</g>
<g>
	<g id="Calque_1-2_2_">
		<g>
			<defs>
				<rect id="SVGID_7_" x="0.3" y="-26.7" width="1597" height="996.3"/>
			</defs>
			<clipPath id="SVGID_8_">
				<use xlink:href="#SVGID_7_"  style="overflow:visible;"/>
			</clipPath>
			<g class="st15">
				<polygon class="st16" points="160.9,216.4 120.7,138.2 160.9,59.9 200.1,138.2 				"/>
				<polygon class="st17" points="200.6,138.2 160.4,59.9 200.6,-18.3 239.8,59.9 				"/>
				<polygon class="st16" points="121.1,138.2 81,59.9 121.1,-18.3 160.4,59.9 				"/>
				<polygon class="st16" points="280,294.6 239.8,216.4 280,138.2 319.3,216.4 				"/>
				<polygon class="st16" points="319.7,216.4 279.5,138.2 319.7,59.9 359,138.2 				"/>
				<polygon class="st16" points="240.3,216.4 200.1,138.2 240.3,59.9 279.5,138.2 				"/>
				<polygon class="st18" points="2,214.8 -38.2,136.6 2,58.4 41.2,136.6 				"/>
				<polygon class="st19" points="41.7,136.6 1.5,58.4 41.7,-19.9 81,58.4 				"/>
				<polygon class="st16" points="-37.7,136.6 -77.9,58.4 -37.7,-19.9 1.5,58.4 				"/>
				<polygon class="st19" points="81.4,372.9 41.2,294.6 81.4,216.4 120.7,294.6 				"/>
				<polygon class="st20" points="121.1,294.6 81,216.4 121.1,138.2 160.4,216.4 				"/>
				<polygon class="st16" points="41.7,294.6 1.5,216.4 41.7,138.2 81,216.4 				"/>
				<polygon class="st16" points="359.4,138.2 319.3,59.9 359.4,-18.3 398.7,59.9 				"/>
				<polygon class="st16" points="399.2,59.9 359,-18.3 399.2,-96.6 438.4,-18.3 				"/>
				<polygon class="st16" points="319.7,59.9 279.5,-18.3 319.7,-96.6 359,-18.3 				"/>
				<polygon class="st19" points="398.7,375.1 358.5,296.9 398.7,218.7 437.9,296.9 				"/>
				<polygon class="st16" points="438.4,296.9 398.2,218.7 438.4,140.4 477.6,218.7 				"/>
				<polygon class="st21" points="358.9,296.9 318.8,218.7 358.9,140.4 398.2,218.7 				"/>
				<polygon class="st16" points="1467.3,912.6 1424.5,829.3 1467.3,746 1509.1,829.3 				"/>
				<polygon class="st17" points="1509.6,829.3 1466.8,746 1509.6,662.6 1551.4,746 				"/>
				<polygon class="st16" points="1425,829.3 1382.2,746 1425,662.6 1466.8,746 				"/>
				<polygon class="st16" points="1594.2,996 1551.4,912.6 1594.2,829.3 1636,912.6 				"/>
				<polygon class="st16" points="1636.5,912.6 1593.7,829.3 1636.5,746 1678.3,829.3 				"/>
				<polygon class="st16" points="1551.9,912.6 1509.1,829.3 1551.9,746 1593.7,829.3 				"/>
				<polygon class="st18" points="1298.1,911 1255.3,827.7 1298.1,744.3 1339.9,827.7 				"/>
				<polygon class="st19" points="1340.4,827.7 1297.6,744.3 1340.4,661 1382.2,744.3 				"/>
				<polygon class="st16" points="1255.8,827.7 1213,744.3 1255.8,661 1297.6,744.3 				"/>
				<polygon class="st19" points="1382.7,1079.3 1339.9,996 1382.7,912.6 1424.5,996 				"/>
				<polygon class="st20" points="1425,996 1382.2,912.6 1425,829.3 1466.8,912.6 				"/>
				<polygon class="st16" points="1340.4,996 1297.6,912.6 1340.4,829.3 1382.2,912.6 				"/>
				<polygon class="st16" points="1678.8,829.3 1636,746 1678.8,662.6 1720.6,746 				"/>
				<polygon class="st16" points="1721.1,746 1678.3,662.6 1721.1,579.3 1762.9,662.6 				"/>
				<polygon class="st16" points="1636.5,746 1593.7,662.6 1636.5,579.3 1678.3,662.6 				"/>
				<polygon class="st19" points="1720.6,1081.7 1677.8,998.4 1720.6,915.1 1762.4,998.4 				"/>
				<polygon class="st16" points="1762.9,998.4 1720.1,915.1 1762.9,831.7 1804.7,915.1 				"/>
				<polygon class="st21" points="1678.3,998.4 1635.5,915.1 1678.3,831.7 1720.1,915.1 				"/>
			</g>
		</g>
	</g>
</g>
</svg>
