<?xml version="1.0" encoding="utf-8"?>
<!-- Generator: Adobe Illustrator 23.0.2, SVG Export Plug-In . SVG Version: 6.00 Build 0)  -->
<svg version="1.1" id="Calque_1" xmlns="http://www.w3.org/2000/svg" xmlns:xlink="http://www.w3.org/1999/xlink" x="0px" y="0px"
	 viewBox="0 0 1597 921.4" style="enable-background:new 0 0 1597 921.4;" xml:space="preserve">
<style type="text/css">
	.st0{display:none;}
	.st1{display:inline;}
	.st2{clip-path:url(#SVGID_2_);}
	.st3{fill:#FFFFFF;}
	.st4{clip-path:url(#SVGID_4_);}
	.st5{fill:#B3B3B3;}
	.st6{fill:#6EC6D9;}
	.st7{fill:#EE7AAA;}
	.st8{fill:#D4155B;}
	.st9{fill:#EB5B27;}
	.st10{fill:#C1282E;}
	.st11{fill:#2BABE2;}
	.st12{fill:#C7B29A;}
	.st13{fill:url(#SVGID_5_);}
	.st14{fill:url(#SVGID_6_);}
	.st15{clip-path:url(#SVGID_8_);}
	.st16{fill:#DAEFF9;}
	.st17{fill:#ECF7FC;}
	.st18{fill:#FCE6F0;}
	.st19{fill:#FFF1DE;}
	.st20{fill:#F9F6C6;}
	.st21{fill:#FDE5D1;}
</style>
<title>clouds</title>
<g class="st0">
	<g id="Calque_1-2" class="st1">
		<g>
			<g>
				<g>
					<defs>
						<rect id="SVGID_1_" x="1.2" y="141.3" width="1595.8" height="990.6"/>
					</defs>
					<clipPath id="SVGID_2_">
						<use xlink:href="#SVGID_1_"  style="overflow:visible;"/>
					</clipPath>
					<g class="st2">
						<path class="st3" d="M0,716.6c0,0,63-103.7,140-17.7c0,0,59-40.5,64,17.7S146,784,146,784s86-37.6,105,21.1
							s-76,117.1-181,70.4c0,0-12,42.3-70,45.8V716.6z"/>
						<path class="st3" d="M1597,266c0,0-63-103.7-140-17.7c0,0-59-40.5-64,17.7s58,67.4,58,67.4s-86-37.6-105,21.1
							s76,117.2,181,70.4c0,0,12,42.3,70,45.8V266z"/>
					</g>
				</g>
			</g>
		</g>
	</g>
</g>
<g class="st0">
	<g class="st1">
		<g id="Calque_1-2_1_">
			<g>
				<g>
					<g>
						<defs>
							<rect id="SVGID_3_" x="0.6" width="1596.4" height="921.4"/>
						</defs>
						<clipPath id="SVGID_4_">
							<use xlink:href="#SVGID_3_"  style="overflow:visible;"/>
						</clipPath>
						<g class="st4">
							<g>
								<polygon class="st5" points="160,221.8 119.8,149.1 160,76.5 199.3,149.1 								"/>
								<polygon class="st6" points="199.7,149.1 159.5,76.5 199.7,3.8 239,76.5 								"/>
								<polygon class="st5" points="120.3,149.1 80.1,76.5 120.3,3.8 159.5,76.5 								"/>
								<polygon class="st5" points="279.2,294.5 239,221.8 279.2,149.1 318.5,221.8 								"/>
								<polygon class="st5" points="318.9,221.8 278.7,149.1 318.9,76.5 358.2,149.1 								"/>
								<polygon class="st5" points="239.5,221.8 199.3,149.1 239.5,76.5 278.7,149.1 								"/>
								<polygon class="st7" points="1.1,220.4 -39.1,147.7 1.1,75 40.3,147.7 								"/>
								<polygon class="st8" points="40.8,147.7 0.6,75 40.8,2.4 80.1,75 								"/>
								<polygon class="st5" points="-38.6,147.7 -78.9,75 -38.6,2.4 0.6,75 								"/>
								<polygon class="st9" points="80.5,367.1 40.3,294.5 80.5,221.8 119.8,294.5 								"/>
								<polygon class="st10" points="120.3,294.5 80.1,221.8 120.3,149.1 159.5,221.8 								"/>
								<polygon class="st11" points="40.8,294.5 0.6,221.8 40.8,149.1 80.1,221.8 								"/>
								<polygon class="st5" points="358.7,149.1 318.5,76.5 358.7,3.8 397.9,76.5 								"/>
								<polygon class="st5" points="398.4,76.5 358.2,3.8 398.4,-68.9 437.7,3.8 								"/>
								<polygon class="st5" points="318.9,76.5 278.7,3.8 318.9,-68.9 358.2,3.8 								"/>
								<polygon class="st8" points="397.9,369.2 357.7,296.6 397.9,223.9 437.2,296.6 								"/>
								<polygon class="st5" points="437.6,296.6 397.4,223.9 437.6,151.2 476.9,223.9 								"/>
								<polygon class="st12" points="358.2,296.6 318,223.9 358.2,151.2 397.4,223.9 								"/>
							</g>
							<g>
								<polygon class="st5" points="1467,868.5 1424.1,791.1 1467,713.7 1508.8,791.1 								"/>
								<polygon class="st6" points="1509.3,791.1 1466.5,713.7 1509.3,636.3 1551.1,713.7 								"/>
								<polygon class="st5" points="1424.6,791.1 1381.8,713.7 1424.6,636.3 1466.5,713.7 								"/>
								<polygon class="st5" points="1593.9,945.9 1551.1,868.5 1593.9,791.1 1635.7,868.5 								"/>
								<polygon class="st5" points="1636.3,868.5 1593.4,791.1 1636.3,713.7 1678.1,791.1 								"/>
								<polygon class="st5" points="1551.6,868.5 1508.8,791.1 1551.6,713.7 1593.4,791.1 								"/>
								<polygon class="st7" points="1297.7,867 1254.9,789.6 1297.7,712.2 1339.5,789.6 								"/>
								<polygon class="st8" points="1340,789.6 1297.2,712.2 1340,634.8 1381.8,712.2 								"/>
								<polygon class="st5" points="1255.4,789.6 1212.5,712.2 1255.4,634.8 1297.2,712.2 								"/>
								<polygon class="st9" points="1382.3,1023.3 1339.5,945.9 1382.3,868.5 1424.1,945.9 								"/>
								<polygon class="st10" points="1424.6,945.9 1381.8,868.5 1424.6,791.1 1466.5,868.5 								"/>
								<polygon class="st11" points="1340,945.9 1297.2,868.5 1340,791.1 1381.8,868.5 								"/>
								<polygon class="st5" points="1678.6,791.1 1635.7,713.7 1678.6,636.3 1720.4,713.7 								"/>
								<polygon class="st5" points="1720.9,713.7 1678.1,636.3 1720.9,558.9 1762.7,636.3 								"/>
								<polygon class="st5" points="1636.3,713.7 1593.4,636.3 1636.3,558.9 1678.1,636.3 								"/>
								<polygon class="st8" points="1720.4,1025.5 1677.5,948.1 1720.4,870.7 1762.2,948.1 								"/>
								<polygon class="st5" points="1762.7,948.1 1719.9,870.7 1762.7,793.3 1804.5,870.7 								"/>
								<polygon class="st12" points="1678,948.1 1635.2,870.7 1678,793.3 1719.9,870.7 								"/>
							</g>
							
								<linearGradient id="SVGID_5_" gradientUnits="userSpaceOnUse" x1="258" y1="1277.9219" x2="258" y2="996.0275" gradientTransform="matrix(1 0 0 -1 0 1268.3829)">
								<stop  offset="0" style="stop-color:#AEDCE7;stop-opacity:0.6"/>
								<stop  offset="1" style="stop-color:#D1E4BA;stop-opacity:0.6"/>
							</linearGradient>
							<ellipse class="st13" cx="258" cy="119.4" rx="147.6" ry="137"/>
							
								<linearGradient id="SVGID_6_" gradientUnits="userSpaceOnUse" x1="1557.3" y1="664.5159" x2="1557.3" y2="498.2493" gradientTransform="matrix(1 0 0 -1 0 1268.3829)">
								<stop  offset="0" style="stop-color:#AEDCE7;stop-opacity:0.6"/>
								<stop  offset="1" style="stop-color:#D1E4BA;stop-opacity:0.6"/>
							</linearGradient>
							<ellipse class="st14" cx="1557.3" cy="679.9" rx="87" ry="80.8"/>
						</g>
					</g>
				</g>
			</g>
		</g>
	</g>
</g>
<g>
	<g id="Calque_1-2_2_">
		<g>
			<g>
				<defs>
					<rect id="SVGID_7_" x="0.3" y="0" width="1597" height="921.4"/>
				</defs>
				<clipPath id="SVGID_8_">
					<use xlink:href="#SVGID_7_"  style="overflow:visible;"/>
				</clipPath>
				<g class="st15">
					<g id="HAUT">
						<polygon class="st16" points="238.8,215.9 198.6,143.6 238.8,71.2 278,143.6 						"/>
						<polygon class="st17" points="278.5,143.6 238.3,71.2 278.5,-1.1 317.7,71.2 						"/>
						<polygon class="st16" points="199,143.6 158.9,71.2 199,-1.1 238.3,71.2 						"/>
						<polygon class="st16" points="357.9,288.3 317.7,215.9 357.9,143.6 397.2,215.9 						"/>
						<polygon class="st16" points="397.6,215.9 357.4,143.6 397.6,71.2 436.9,143.6 						"/>
						<polygon class="st16" points="318.2,215.9 278,143.6 318.2,71.2 357.4,143.6 						"/>
						<polygon class="st18" points="79.9,214.5 39.7,142.1 79.9,69.8 119.1,142.1 						"/>
						<polygon class="st19" points="119.6,142.1 79.4,69.8 119.6,-2.6 158.9,69.8 						"/>
						<polygon class="st16" points="40.2,142.1 0,69.8 40.2,-2.6 79.4,69.8 						"/>
						<polygon class="st19" points="159.3,360.7 119.1,288.3 159.3,215.9 198.6,288.3 						"/>
						<polygon class="st20" points="199,288.3 158.9,215.9 199,143.6 238.3,215.9 						"/>
						<polygon class="st16" points="119.6,288.3 79.4,215.9 119.6,143.6 158.9,215.9 						"/>
						<polygon class="st16" points="437.3,143.6 397.2,71.2 437.3,-1.1 476.6,71.2 						"/>
						<polygon class="st16" points="477.1,71.2 436.9,-1.1 477.1,-73.5 516.3,-1.1 						"/>
						<polygon class="st16" points="397.6,71.2 357.4,-1.1 397.6,-73.5 436.9,-1.1 						"/>
						<polygon class="st19" points="476.6,362.7 436.4,290.4 476.6,218.1 515.8,290.4 						"/>
						<polygon class="st16" points="516.3,290.4 476.1,218.1 516.3,145.7 555.5,218.1 						"/>
						<polygon class="st21" points="436.8,290.4 396.7,218.1 436.8,145.7 476.1,218.1 						"/>
					</g>
					<g id="bas">
						<polygon class="st16" points="1467.3,868.7 1424.5,791.6 1467.3,714.6 1509.1,791.6 						"/>
						<polygon class="st17" points="1509.6,791.6 1466.8,714.6 1509.6,637.5 1551.4,714.6 						"/>
						<polygon class="st16" points="1425,791.6 1382.2,714.6 1425,637.5 1466.8,714.6 						"/>
						<polygon class="st16" points="1594.2,945.8 1551.4,868.7 1594.2,791.6 1636,868.7 						"/>
						<polygon class="st16" points="1636.5,868.7 1593.7,791.6 1636.5,714.6 1678.3,791.6 						"/>
						<polygon class="st16" points="1551.9,868.7 1509.1,791.6 1551.9,714.6 1593.7,791.6 						"/>
						<polygon class="st18" points="1298.1,867.2 1255.3,790.2 1298.1,713 1339.9,790.2 						"/>
						<polygon class="st19" points="1340.4,790.2 1297.6,713 1340.4,636 1382.2,713 						"/>
						<polygon class="st16" points="1255.8,790.2 1213,713 1255.8,636 1297.6,713 						"/>
						<polygon class="st19" points="1382.7,1022.9 1339.9,945.8 1382.7,868.7 1424.5,945.8 						"/>
						<polygon class="st20" points="1425,945.8 1382.2,868.7 1425,791.6 1466.8,868.7 						"/>
						<polygon class="st16" points="1340.4,945.8 1297.6,868.7 1340.4,791.6 1382.2,868.7 						"/>
						<polygon class="st16" points="1678.8,791.6 1636,714.6 1678.8,637.5 1720.6,714.6 						"/>
						<polygon class="st16" points="1721.1,714.6 1678.3,637.5 1721.1,560.4 1762.9,637.5 						"/>
						<polygon class="st16" points="1636.5,714.6 1593.7,637.5 1636.5,560.4 1678.3,637.5 						"/>
						<polygon class="st19" points="1720.6,1025.1 1677.8,948 1720.6,871 1762.4,948 						"/>
						<polygon class="st16" points="1762.9,948 1720.1,871 1762.9,793.9 1804.7,871 						"/>
						<polygon class="st21" points="1678.3,948 1635.5,871 1678.3,793.9 1720.1,871 						"/>
					</g>
				</g>
			</g>
		</g>
	</g>
</g>
</svg>
