<svg xmlns="http://www.w3.org/2000/svg" xmlns:xlink="http://www.w3.org/1999/xlink" viewBox="0 0 141.74 73.57"><defs><style>.cls-1{fill:none;}.cls-2{clip-path:url(#clip-path);}.cls-3{fill:#9cd4d6;}.cls-4{fill:url(#Dégradé_sans_nom_37);}.cls-5{fill:#cce8ea;}.cls-6{fill:url(#Dégradé_sans_nom_37-2);}</style><clipPath id="clip-path" transform="translate(-1423.08 -144.89)"><rect class="cls-1" width="1595.79" height="990.58"/></clipPath><linearGradient id="Dégradé_sans_nom_37" x1="1315.38" y1="148.64" x2="1330.56" y2="170.75" gradientTransform="matrix(-1, 0, 0, 1, 1366.22, -144.89)" gradientUnits="userSpaceOnUse"><stop offset="0" stop-color="#bed2d8"/><stop offset="1" stop-color="#728b89"/></linearGradient><linearGradient id="Dégradé_sans_nom_37-2" x1="1294.54" y1="186.07" x2="1301.88" y2="196.76" gradientTransform="matrix(-0.94, -0.35, -0.35, 0.94, 1399.7, 326.08)" xlink:href="#Dégradé_sans_nom_37"/></defs><title>paper_planes</title><g id="Calque_2" data-name="Calque 2"><g id="Calque_1-2" data-name="Calque 1"><g class="cls-2"><polygon class="cls-3" points="75.91 16.17 0 0 95.79 4.7 75.91 16.17"/><polygon class="cls-3" points="62.38 24.09 0 0 31.19 40.26 62.38 24.09"/><polygon class="cls-4" points="75.91 16.17 72.61 49.83 62.38 24.09 0 0 75.91 16.17"/><polygon class="cls-5" points="72.61 49.83 49.83 30.59 62.38 24.09 72.61 49.83"/><polygon class="cls-3" points="130.8 58.88 99.13 38.75 141.74 57.03 130.8 58.88"/><polygon class="cls-3" points="123.33 60.18 99.13 38.75 106.48 62.25 123.33 60.18"/><polygon class="cls-6" points="130.8 58.88 123.63 73.57 123.33 60.18 99.13 38.75 130.8 58.88"/><polygon class="cls-5" points="123.63 73.57 116.56 61.01 123.33 60.18 123.63 73.57"/></g></g></g></svg>