<?xml version="1.0" encoding="utf-8"?>
<!-- Generator: Adobe Illustrator 23.0.2, SVG Export Plug-In . SVG Version: 6.00 Build 0)  -->
<svg version="1.1" id="Layer_1" xmlns="http://www.w3.org/2000/svg" xmlns:xlink="http://www.w3.org/1999/xlink" x="0px" y="0px"
	 viewBox="0 0 595.3 419.5" style="enable-background:new 0 0 595.3 419.5;" xml:space="preserve">
<style type="text/css">
	.st0{fill:none;stroke:#000000;stroke-width:0.425;stroke-linecap:round;}
	.st1{fill:none;stroke:#000000;stroke-width:1.702;stroke-linecap:round;}
	.st2{fill:none;stroke:#000000;stroke-width:0.851;stroke-linecap:round;}
</style>
<path id="XMLID_187_" d="M205.5,212.4c0,0.9-0.2,1.1-0.9,1.3c-0.7,0.2-2.9,0.5-5.2,0.5c-6,0-8.4-2.5-8.4-8.8v-6
	c0-6.3,2.5-8.8,8.8-8.8c3.8,0,5.8,0.4,5.8,1.3s-0.2,2.2-0.9,2.2c-0.4,0-2.7-0.5-4.7-0.5c-3.9,0-5.5,1.8-5.5,5.7v5.9
	c0,4.1,1.6,5.7,5.6,5.7c1.3,0,2.9-0.2,4.7-0.4C205.2,210.7,205.5,211.5,205.5,212.4z"/>
<path id="XMLID_184_" d="M209.9,182.7c0-0.5,1.7-0.7,2.6-0.7c0.7,0,1.1,0.3,1.1,1.1v2.6c0,0.8-0.4,1.1-1.1,1.1
	c-0.8,0-2.6-0.3-2.6-0.8V182.7z M218.6,212.7c0,1.3-2.5,1.5-3.7,1.5c-3.2,0-4.9-1.6-4.9-5.8v-17c0-0.6,1.9-0.6,2.6-0.6
	c0.6,0,1,0.3,1,1v16.1c0,1.9,0.4,3,2.2,3c0.6,0,1.2-0.1,2-0.3C218.2,210.6,218.6,212.1,218.6,212.7z"/>
<path id="XMLID_182_" d="M225.4,194.6v13.3c0,2,0.9,3.1,2.8,3.1c0.7,0,1.3-0.2,2-0.3c0.7,0,0.9,1.1,0.9,2.4c0,1-2.8,1.1-4.1,1.1
	c-2.9,0-5.2-1.4-5.2-5.9v-13.7H219c-0.5,0-0.8-0.4-0.8-0.9c0-0.8,0.1-2.5,0.9-2.5h2.6v-5.1c0-0.5,1.8-0.7,2.6-0.7c0.6,0,1,0.4,1,1
	v4.8h4.7c0.5,0,0.8,0.4,0.8,0.9c0,0.8-0.1,2.5-0.9,2.5H225.4z"/>
<path id="XMLID_179_" d="M279.9,211.3c0,0.9-0.1,1.2-0.8,1.6c-1.3,0.6-5.2,1.3-8,1.3c-7.2,0-7.9-3.8-7.9-7.8v-7.7c0-3.7,0.9-8,6.8-8
	c2.4,0,4.8,0.7,6.3,1.3v-9.5c0-0.6,1.9-0.7,2.6-0.7c0.6,0,1,0.3,1,1.2V211.3z M276.3,195.2c-0.5-0.3-2.8-1.2-5.2-1.2
	c-4,0-4.3,2.6-4.3,5.4v6.5c0,3,0.3,5.4,4.6,5.4c1.9,0,4.6-0.4,4.9-0.8V195.2z"/>
<path id="XMLID_176_" d="M294.2,214.2c-7,0-9.3-2.8-9.3-10.3v-5.4c0-5.5,2.8-7.7,8.3-7.7h0.6c5.9,0,8.1,2.2,8.1,6.4v1
	c0,5.1-2.2,6.8-13.5,6.8c0,4.4,1.7,6.2,6.6,6.2c2.3,0,4.7-0.6,6-0.6c0.4,0,0.7,0.3,0.7,2.1c0,0.5-0.2,0.6-0.6,0.8
	C299,213.9,296.2,214.2,294.2,214.2z M298.4,197.1c0-2.4-1.5-3.6-4.9-3.6c-3,0-5.1,0.9-5.1,4.8v3.9c8.7,0,10-0.7,10-4.3V197.1z"/>
<path id="XMLID_174_" d="M324.3,212.7c0,1.4-2.7,1.5-3.7,1.5c-3.2,0-4.9-1.6-4.9-5.8v-26c0-0.6,1.9-0.6,2.6-0.6c0.6,0,1,0.3,1,1
	v25.1c0,1.9,0.4,3,2.2,3c0.6,0,1.2-0.1,2-0.3C323.9,210.6,324.3,212.1,324.3,212.7z"/>
<path id="XMLID_172_" d="M368.6,191.9c0.3-1.1,1.1-1.2,2.8-1.2c0.8,0,1.1,0.3,1.1,0.9c0,0.2-0.1,0.4-0.2,0.7l-7.1,20.9
	c-0.2,0.8-0.6,1-1.1,1c-0.8,0-2.3-0.2-2.6-1l-7.1-21c-0.1-0.3-0.2-0.5-0.2-0.7c0-0.5,0.4-0.9,1.1-0.9c1.7,0,2.5,0.1,2.8,1.2
	l4.5,15.4c0.3,0.9,0.5,1.8,0.6,2.8c0.1-1,0.3-2,0.6-2.8L368.6,191.9z"/>
<path id="XMLID_169_" d="M397.8,182.7c0-0.5,1.7-0.7,2.6-0.7c0.7,0,1.1,0.3,1.1,1.1v2.6c0,0.8-0.4,1.1-1.1,1.1
	c-0.8,0-2.6-0.3-2.6-0.8V182.7z M406.4,212.7c0,1.3-2.5,1.5-3.7,1.5c-3.2,0-4.9-1.6-4.9-5.8v-17c0-0.6,1.9-0.6,2.6-0.6
	c0.6,0,1,0.3,1,1v16.1c0,1.9,0.4,3,2.2,3c0.6,0,1.2-0.1,2-0.3C406.1,210.6,406.4,212.1,406.4,212.7z"/>
<path id="XMLID_167_" d="M424.6,212.7c0.2,0.3,0.3,0.6,0.3,0.8c0,0.6-0.7,0.6-1,0.6c-0.8,0-2.4-0.1-2.7-0.6l-5.1-8.8l-5,8.8
	c-0.4,0.5-2,0.6-2.7,0.6c-0.3,0-1-0.1-1-0.6c0-0.2,0-0.5,0.3-0.8l6.3-10.5l-6-10.2c-0.2-0.3-0.3-0.6-0.3-0.8c0-0.6,0.7-0.6,1.1-0.6
	c0.9,0,2.3,0.1,2.6,0.6l4.8,8.6l4.8-8.6c0.3-0.6,1.8-0.6,2.6-0.6c0.3,0,1,0,1,0.6c0,0.2,0,0.4-0.3,0.8l-6,10.2L424.6,212.7z"/>
<path id="XMLID_166_" d="M251,198.2v-1c0-4.2-2.2-6.4-8.1-6.4h-0.6c-5.5,0-8.3,2.2-8.3,7.7v5.4c0,7.6,2.3,10.3,9.3,10.3
	c2,0,4.8-0.3,6.8-0.8c0.5-0.1,0.6-0.3,0.6-0.8c0-1.9-0.3-2.1-0.7-2.1c-1.3,0-3.7,0.6-6,0.6c-4.9,0-6.6-1.8-6.6-6.2v-0.8V201v-2.7
	c0-4,2.1-4.8,5.1-4.8c3.4,0,4.9,1.2,4.9,3.6v0.9c0,3.2-1.1,4.1-7.7,4.2h0v1.9v0.8c0,0,0,0,0,0C249.1,204.7,251,202.9,251,198.2z"/>
<path id="XMLID_165_" d="M241.5,187.3c0.7,0,1.3,0,1.6-0.5l2.8-3.7c0.1-0.2,0.2-0.3,0.2-0.5c0-0.3-0.3-0.6-1.4-0.6
	c-1.3,0-1.7,0.2-2,0.8l-2.2,3.7c-0.1,0.1-0.1,0.2-0.1,0.3C240.5,187.2,241,187.3,241.5,187.3z"/>
<path id="XMLID_163_" d="M334.4,190.7c-3.1,0-6.1,0.4-6.9,0.7c-0.3,0.1-0.4,0.3-0.4,0.8c0,0.3,0.1,2.1,0.9,2.1
	c1.4-0.3,3.6-0.6,5.5-0.6c4.2,0,5.5,1.1,5.5,4.1v2.5v1.2v1.9v0.9H339c0,0,0,0,0.1,0v6.2c-0.3,0.4-3.1,0.9-4.8,0.9
	c-3.4,0-4.8-1-4.8-4c0-3.3,1.3-4.1,4.3-4.1c0.9,0,2.1,0.2,3.1,0.4v-0.2V201c-1.2-0.2-2.6-0.4-3.9-0.4c-5.2,0-7,2.1-7,6.5
	c0,4.9,2.5,7,8.3,7c4.4,0,8.4-1.4,8.4-2.3v-14.1C342.5,192.2,339.8,190.7,334.4,190.7z"/>
<path id="XMLID_162_" d="M382.7,211.2V211c-3.1-0.2-4.1-1.6-4.1-4.3v-8.4c0-2.8,1.1-4.2,4.1-4.4v-3.2c-5.4,0.2-7.7,2.3-7.7,7.5v8.4
	c0,5.3,2.3,7.3,7.7,7.5V211.2z"/>
<path id="XMLID_161_" d="M384.9,190.7v3.2c3.1,0.2,4.2,1.6,4.2,4.4v8.4c0,2.7-1.1,4.1-4.2,4.3v0.1v3.1c5.4-0.2,7.7-2.2,7.7-7.5v-8.4
	C392.6,193,390.3,191,384.9,190.7z"/>
<path id="XMLID_4_" d="M344,222.9c0.1-0.3,1-0.3,1.4-0.3c0.2,0,0.5,0.1,0.5,0.4c0,0,0,0.1,0,0.1l-3.6,10.8c-0.1,0.1-0.2,0.3-0.4,0.3
	c-0.3,0-1.1,0-1.2-0.2l-3.6-10.8c0-0.1,0-0.1,0-0.1c0-0.3,0.3-0.4,0.5-0.4c0.4,0,1.3,0,1.4,0.4l2.6,8.6L344,222.9z M351.2,223.3
	c0-0.2,0.2-0.4,0.4-0.4h6.2c0.2,0,0.4,0.2,0.4,0.4c0,0.4-0.1,1.1-0.3,1.1H353v3.1h4.3c0.2,0,0.4,0.2,0.4,0.4c0,0.3-0.1,1-0.3,1H353
	v3.4h4.9c0.2,0,0.4,0.2,0.4,0.4c0,0.3-0.1,1.1-0.3,1.1h-6c-0.3,0-0.7-0.1-0.7-0.3V223.3z M355.1,218.8c0.2-0.3,0.4-0.4,1-0.4
	c0.5,0,0.7,0.1,0.7,0.3c0,0.1,0,0.1-0.1,0.2l-1.4,1.8c-0.2,0.2-0.4,0.3-0.8,0.3c-0.3,0-0.5-0.1-0.5-0.2c0,0,0-0.1,0.1-0.1
	L355.1,218.8z M364,233.9c-0.2,0-0.3-0.2-0.3-0.4c0-0.3,0-1,0.3-1.2l6-7.9h-5.2c-0.2,0-0.3-0.8-0.3-1.1c0-0.2,0.2-0.4,0.4-0.4h7
	c0.2,0,0.4,0.2,0.4,0.4c0,0.2-0.1,1-0.3,1.1l-5.9,7.9h6c0.2,0,0.4,0.2,0.4,0.4c0,0.3-0.1,1.1-0.3,1.1H364z M378,223.3
	c0-0.2,0.2-0.4,0.4-0.4h6.2c0.2,0,0.4,0.2,0.4,0.4c0,0.4-0.1,1.1-0.3,1.1h-4.9v3.1h4.3c0.2,0,0.4,0.2,0.4,0.4c0,0.3-0.1,1-0.3,1
	h-4.4v3.4h4.9c0.2,0,0.4,0.2,0.4,0.4c0,0.3-0.1,1.1-0.3,1.1h-6c-0.3,0-0.7-0.1-0.7-0.3V223.3z M391.8,233.9c-0.4,0-0.8-0.1-0.8-0.3
	V223c0-0.2,0.9-0.3,1.3-0.3c0.3,0,0.4,0.2,0.4,0.4v9.3h4.9c0.2,0,0.4,0.2,0.4,0.4c0,0.3-0.1,1.1-0.3,1.1H391.8z M409,230.9h-3.5
	l-0.9,2.9c-0.1,0.3-1,0.4-1.4,0.4c-0.1,0-0.5-0.1-0.5-0.3c0-0.1,0-0.1,0-0.1l3.6-10.7c0.1-0.2,0.2-0.3,0.5-0.3
	c0.3,0,1.2,0.1,1.3,0.3l3.6,10.7c0,0,0,0.1,0,0.1c0,0.2-0.3,0.3-0.5,0.3c-0.4,0-1.3,0-1.4-0.4L409,230.9z M405.8,229.5h2.8l-1.4-4.6
	L405.8,229.5z M420.7,233.7c0,0.2-0.2,0.4-0.4,0.4c-0.4,0-1.3-0.1-1.3-0.3v-4.4l-3.3-6.1c-0.1-0.1-0.1-0.3-0.1-0.4
	c0-0.2,0.2-0.3,0.5-0.3c0.8,0,1.2,0.1,1.4,0.4l2.4,4.7l2.4-4.7c0.2-0.3,1.1-0.4,1.4-0.4c0.3,0,0.5,0.1,0.5,0.3c0,0.1,0,0.2-0.1,0.4
	l-3.3,6.1V233.7z"/>
<path id="XMLID_3_" class="st0" d="M172.2,237.2c20-4.6,93.2-6.5,163.4-4.3"/>
<path id="XMLID_2_" class="st0" d="M171.4,224.6c19.8,6.3,89.4,8.2,155.4,4.2"/>
<path id="XMLID_1_" class="st1" d="M172.8,217.2c14.4,6.2,64.3,12.5,111.4,14.1c20.8,0.7,37.6,0.4,48.6-0.7"/>
<path id="XMLID_145_" class="st2" d="M172.3,228.1c12.9,4.5,56.7,7,97.8,5.5c24.6-0.9,42.7-3,50.5-5.5"/>
</svg>
