<svg xmlns="http://www.w3.org/2000/svg" viewBox="0 0 651.97 516.06"><defs><style>.cls-1{fill:#231f20;}.cls-2{fill:none;}</style></defs><title>Logo-regionNOIR</title><g id="Calque_1" data-name="Calque 1"><g id="TEXTES"><path class="cls-1" d="M130.08,188.13A28.82,28.82,0,1,0,158.93,217,28.55,28.55,0,0,0,130.08,188.13Zm0,44.24c-8.47,0-14.16-6.19-14.16-15.39s5.69-15.46,14.16-15.46,14.15,6.21,14.15,15.46S138.54,232.37,130.08,232.37Z"/><path class="cls-1" d="M196.89,245.76c15.48,0,23.32-7.31,23.32-21.73v-35.9h-14v37.66c0,5.71-4.75,8.31-9.16,8.31s-9.14-2.6-9.14-8.31V188.13H173.49V223.2C173.49,237.75,181.79,245.76,196.89,245.76Z"/><path class="cls-1" d="M260.45,228.71c.06.1,6.32,10,9.21,15.51.77,1.54,1,1.54,1.5,1.54h15.23c.14,0,.4,0,.47-.14s.14-.46-.59-1.67c-2.75-4.46-5.52-9.18-7.74-13-1.82-3.08-3.38-5.75-4.38-7.32l-.2-.32.34-.16c5.11-2.43,7.81-7.86,7.81-15.7,0-9.63-6.17-19.35-20-19.35h-26.8c-.12,0-.21,0-.21.44v56.75c0,.17,0,.34,0,.44h14.44a1,1,0,0,0,.34,0s0-.1,0-.41V228.74l10.41-.18Zm-10.51-10.9V200.27h8.84c4.79,0,7.64,3.12,7.64,8.33s-2.88,8.77-7.53,8.94Z"/><path class="cls-1" d="M79.34,216.33l-1.75-.18,1.68-.47c6.5-1.83,10.07-6.3,10.07-12.58,0-9.37-6.2-15-16.6-15H47.79c-.7,0-.7.11-.7.52v56.24a3,3,0,0,0,.07.84,1.13,1.13,0,0,0,.36,0H74.89c9.77,0,16.09-6.08,16.09-15.48C91,224.11,86.89,217.12,79.34,216.33ZM61.8,199.49h6.73c3.77,0,5.84,2.08,5.84,5.84s-2.19,5.84-5.84,5.84H61.8Zm7.59,34.9H61.8V221.08h7.59c3.63,0,6.26,2.82,6.26,6.7C75.65,231.92,73.31,234.39,69.39,234.39Z"/><path class="cls-1" d="M389.6,188.13A28.82,28.82,0,1,0,418.46,217,28.55,28.55,0,0,0,389.6,188.13Zm0,44.24c-8.47,0-14.16-6.19-14.16-15.39s5.69-15.46,14.16-15.46,14.14,6.21,14.14,15.46S398.06,232.37,389.6,232.37Z"/><path class="cls-1" d="M461.73,358.62a2,2,0,0,0,.48,0h14.28V301H462.21a1.46,1.46,0,0,0-.49,0,2.22,2.22,0,0,0,0,.4v20.62H441.5V301.47a1.48,1.48,0,0,0,0-.43s-.08,0-.32,0H426.71c0,.1,0,.27,0,.44v56.75c0,.16,0,.33,0,.43h14.44a1.09,1.09,0,0,0,.34,0s0-.09,0-.4v-23h20.2v23A1.41,1.41,0,0,0,461.73,358.62Z"/><path class="cls-1" d="M119.7,360.29l.08-.34h14.83c.41,0,.45,0,.45-.91V338.71l21.69.18c.74,0,.85-.14.91-.68a106.44,106.44,0,0,0,0-12.14c0-.48-.13-.75-.82-.75l-21.78.27v-13l24.49.19a1,1,0,0,0,.34,0s0-.14,0-.29l0-.27a79.25,79.25,0,0,0,0-12.23l0-.25a1.68,1.68,0,0,0,0-.31h-40a1.09,1.09,0,0,0-.31,0,3.22,3.22,0,0,0-.06.8V359a2.8,2.8,0,0,0,.08.92h.11v.34Z"/><path class="cls-1" d="M200.46,341.61c.07.1,6.33,10,9.22,15.51.76,1.53,1,1.53,1.5,1.53H226.4c.16,0,.41,0,.48-.14s.14-.45-.58-1.67c-2.73-4.41-5.47-9.08-7.68-12.83-1.85-3.15-3.44-5.86-4.46-7.46l-.2-.32.35-.16c5.11-2.43,7.81-7.85,7.81-15.69,0-9.63-6.17-19.35-20-19.35H175.37c-.12,0-.22,0-.22.45v56.75c0,.17,0,.33,0,.43h14.45c.24,0,.31,0,.33,0a2.45,2.45,0,0,0,0-.4V341.64l10.4-.19ZM190,330.7V313.17h8.84c4.79,0,7.65,3.11,7.65,8.33s-2.89,8.76-7.55,8.93Z"/><path class="cls-1" d="M290.71,358c-1.75-3.72-23.21-46.7-28.44-56.94h-.7a5.1,5.1,0,0,0-.73,0c-6.36,11.92-19.52,38.47-28.2,56.9-.2.51-.15.64-.15.65a.68.68,0,0,0,.26,0h13.78c.93,0,1-.14,1.19-.69.33-.8,2.31-5.74,2.92-7.16l.08-.2h20.54l.09.22c.55,1.37,1.94,4.84,3.07,7.37.18.42.35.46.68.46h15.49a.68.68,0,0,0,.26,0S290.9,358.48,290.71,358Zm-36.13-17.5.21-.47,6-13.29,6.42,13.76Z"/><path class="cls-1" d="M387.21,358.65a27.4,27.4,0,0,0,25.43-16.81.43.43,0,0,0,0-.37c0-.1-.23-.19-.5-.24l-12.37-3.38a.82.82,0,0,0-.21,0c-.12,0-.15,0-.31.31l-.09.15c-2.14,4.55-6.33,7.07-11.79,7.07-7,0-14.07-4.73-14.07-15.3,0-9.21,5.68-15.64,13.82-15.64a12.75,12.75,0,0,1,12.31,7.68,1.38,1.38,0,0,0,.13.29l.2-.05L412,317.56c.12-.06.4-.2.05-1C410,311.87,403.42,301,386.8,301c-16.22,0-28.45,12.44-28.45,28.94S370.76,358.65,387.21,358.65Z"/><path class="cls-1" d="M75.24,469.68a27.37,27.37,0,0,0,25.43-16.82.46.46,0,0,0,0-.36c-.06-.11-.24-.19-.51-.25l-12.36-3.37a.6.6,0,0,0-.22,0c-.11,0-.14,0-.3.3l-.09.16c-2.14,4.55-6.34,7.07-11.81,7.07-7,0-14.06-4.73-14.06-15.3,0-9.2,5.69-15.64,13.83-15.64a12.77,12.77,0,0,1,12.3,7.68,3.1,3.1,0,0,0,.14.3s.07,0,.19-.06l12.25-4.77c.12-.07.39-.2,0-1-2-4.65-8.62-15.49-25.26-15.49-16.21,0-28.45,12.44-28.45,28.93S58.79,469.68,75.24,469.68Z"/><path class="cls-1" d="M139.83,412.05A28.82,28.82,0,1,0,168.7,440.9,28.55,28.55,0,0,0,139.83,412.05Zm0,44.23c-8.46,0-14.14-6.18-14.14-15.38s5.68-15.47,14.14-15.47S154,431.65,154,440.9,148.3,456.28,139.83,456.28Z"/><path class="cls-1" d="M219.94,444.13l.52,25.21c0,.31,0,.34.33.34h13.66c.22,0,.27,0,.27,0a1,1,0,0,0,0-.39c0-.13,0-.27,0-.41-.61-21.2-1.11-35-2.26-56.41a.5.5,0,0,0-.14-.38h-.05a.63.63,0,0,0-.41.18c-8,7.75-22,22.39-25.38,26.47l-.24.3-.26-.29c-3.87-4.38-18.56-19.13-25.56-26-.19-.19-.28-.23-.37-.24s-.18.17-.23.63c-.93,20.73-1.54,41.29-1.68,56.38v.18l.42,0h12.57c.59,0,.59,0,.59-.84l.6-24.68.56.56c.1.1,9.77,9.84,13,13.16a1.73,1.73,0,0,0,.36.32,1.63,1.63,0,0,0,.43-.32c3.29-3.32,12.63-13,12.73-13.08Z"/><path class="cls-1" d="M290,423.91V412.57c0-.37,0-.46,0-.49a.72.72,0,0,0-.29,0h-45.5a1.11,1.11,0,0,0-.33,0s0,.28,0,.49v11.35h.27l15.45-.18v45.49a2.56,2.56,0,0,0,0,.43h14.7a1.18,1.18,0,0,0,.42,0,2.61,2.61,0,0,0,0-.4V423.75l15,.18A.87.87,0,0,0,290,423.91Z"/><path class="cls-1" d="M290.28,135.56h-15c-.68,0-1-.16-1.78-1.7-2.89-5.52-9.1-15.3-9.1-15.3l-9.77.17V134.8c0,.67-.08.76-.68.76H240c-.68,0-.68.09-.68-.76V78.7c0-.85.43-.76.68-.76h26.35c13.09,0,20.06,9,20.06,19.46,0,7.82-2.72,13.34-7.9,15.81,2.2,3.48,7,12.07,12,20.06C291.47,135,291.21,135.56,290.28,135.56ZM263,90.6h-8.42v16.66l8.5-.25c4.59-.18,7.14-3.58,7.14-8.51C270.22,94,267.92,90.6,263,90.6Z"/><path class="cls-1" d="M410.91,135.57a2.42,2.42,0,0,1-.8-.25l-9-5.28c-3.34,2.92-6.83,5.53-14.88,5.53-17.39,0-28.45-11.71-28.45-28.78,0-17.23,12.69-28.85,28.85-28.85,13.1,0,20.49,6.58,24.39,15,.33.73.41,1.3-.16,1.46l-11.95,4.56c-.57.24-1-.17-1.22-.66-1.79-3.65-5.53-6.33-10.89-6.33-8.86,0-13.82,6.09-13.82,15,0,9.27,5.28,14.79,13.58,14.79,7,0,10.65-4.55,11.63-10.32.08-.49.32-.81.64-.81H411c.49,0,.65.16.65.57v24.14S411.65,135.57,410.91,135.57Z"/><path class="cls-1" d="M442.89,135.56h-14.1c-.77,0-.77.09-.77-.76V78.7c0-.85,0-.76.77-.76h14.1c.77,0,.86.08.86.76v56.1C443.75,135.47,443.66,135.56,442.89,135.56Z"/><path class="cls-1" d="M487.21,135.57c-16.21,0-28.5-12.85-28.5-28.78S471,77.94,487.21,77.94s28.51,12.92,28.51,28.85S503.43,135.57,487.21,135.57Zm0-43.73c-8.66,0-13.48,6.58-13.48,15s4.82,14.87,13.48,14.87,13.5-6.5,13.5-14.87S495.72,91.84,487.21,91.84Z"/><path class="cls-1" d="M576.83,135.54c-.17.07-.41,0-.73-.25-12.17-9.1-31.17-26.58-31.17-26.58v26c0,.73,0,.73-.73.73H532a.81.81,0,0,1-.81-.81c-.4-20.53-.32-34.73,0-56,0-.41.09-.57.24-.65s.41-.08.65.08c11.52,8.22,31.25,26.51,31.25,26.51V79.05c0-.89,0-1,.65-1h12.25c.8,0,.8.16.8,1,.32,15.71.24,38.68,0,55.44C577.07,135.05,577.07,135.46,576.83,135.54Z"/><path class="cls-1" d="M346.68,358.62c-.17.08-.41,0-.73-.24-12.17-9.1-31.17-26.58-31.17-26.58v26c0,.73,0,.73-.72.73H301.89a.8.8,0,0,1-.8-.81c-.4-20.53-.33-34.73,0-56,0-.41.08-.57.23-.65s.41-.08.65.08c11.52,8.22,31.26,26.51,31.26,26.51V302.14c0-.89,0-1,.64-1h12.25c.8,0,.8.16.8,1,.32,15.7.24,38.69,0,55.44C346.92,358.14,346.92,358.55,346.68,358.62Z"/><path class="cls-1" d="M484.46,245.76a2.48,2.48,0,0,1-.81-.25l-9-5.28c-3.32,2.92-6.82,5.53-14.87,5.53-17.39,0-28.45-11.71-28.45-28.78,0-17.23,12.69-28.85,28.86-28.85,13.09,0,20.48,6.58,24.38,15,.33.73.41,1.3-.16,1.47l-11.94,4.55c-.57.24-1-.17-1.23-.65-1.79-3.66-5.53-6.34-10.89-6.34-8.86,0-13.82,6.09-13.82,14.95,0,9.27,5.28,14.79,13.58,14.79,7,0,10.65-4.55,11.63-10.32.08-.48.32-.81.64-.81h12.19c.49,0,.65.16.65.57v24.14S485.19,245.76,484.46,245.76Z"/><path class="cls-1" d="M350.18,245.76a2.35,2.35,0,0,1-.8-.25l-9-5.28c-3.33,2.92-6.82,5.53-14.87,5.53C308.09,245.76,297,234.05,297,217c0-17.23,12.69-28.85,28.85-28.85,13.1,0,20.49,6.58,24.39,15,.33.73.41,1.3-.16,1.47l-11.95,4.55c-.57.24-1-.17-1.22-.65-1.79-3.66-5.53-6.34-10.89-6.34-8.86,0-13.81,6.09-13.81,14.95,0,9.27,5.27,14.79,13.57,14.79,7,0,10.65-4.55,11.63-10.32.08-.48.32-.81.64-.81h12.19c.49,0,.65.16.65.57v24.14S350.92,245.76,350.18,245.76Z"/><path class="cls-1" d="M344.23,469.68H303.71c-.85,0-.93-.18-.93-1.2V412.9c0-.77-.09-.85.76-.85h40.62c.85,0,.94.08.94,1.1v10.37c0,.77-.26,1.19-.94,1.19l-26.51-.25v9.6h23.1c.76,0,.85.17.85,1.19v10.37c0,1-.09,1.19-.85,1.19h-23.1v9.86l26.58-.25c.94,0,.94,0,.94,1.1v11C345.17,469.5,345.09,469.68,344.23,469.68Z"/><path class="cls-1" d="M344.23,135.57H303.71c-.85,0-.93-.18-.93-1.2V78.79c0-.77-.09-.86.76-.86h40.62c.85,0,.94.09.94,1.11V89.41c0,.77-.26,1.19-.94,1.19l-26.51-.25V100h23.1c.76,0,.85.17.85,1.19v10.37c0,1-.09,1.19-.85,1.19h-23.1v9.86l26.58-.26c.94,0,.94,0,.94,1.11v11C345.17,135.39,345.09,135.57,344.23,135.57Z"/><path class="cls-1" d="M548.21,245.73c-.17.07-.41,0-.73-.25-12.16-9.1-31.18-26.57-31.18-26.57v26c0,.72,0,.72-.72.72H503.41a.8.8,0,0,1-.8-.8c-.4-20.54-.32-34.74,0-56,0-.4.09-.56.24-.65s.41-.07.65.09c11.52,8.21,31.25,26.5,31.25,26.5V189.24c0-.89,0-1,.65-1h12.24c.81,0,.81.17.81,1,.32,15.7.24,38.69,0,55.44C548.45,245.25,548.45,245.65,548.21,245.73Z"/><path class="cls-1" d="M533.15,358.65H492.62c-.85,0-.93-.17-.93-1.19V301.88c0-.77-.08-.86.76-.86h40.63c.85,0,.94.09.94,1.11V312.5c0,.76-.26,1.19-.94,1.19l-26.52-.25V323h23.1c.77,0,.86.17.86,1.19V334.6c0,1-.09,1.18-.86,1.18h-23.1v9.87l26.59-.26c.94,0,.94,0,.94,1.11v11C534.09,358.48,534,358.65,533.15,358.65Z"/><path class="cls-1" d="M604.64,245.76H564.12c-.85,0-.93-.18-.93-1.2V189c0-.77-.09-.85.76-.85h40.62c.86,0,.94.08.94,1.11v10.37c0,.76-.26,1.18-.94,1.18l-26.51-.25v9.6h23.1c.76,0,.85.17.85,1.19V221.7c0,1-.09,1.19-.85,1.19h-23.1v9.86l26.58-.25c1,0,1,0,1,1.1v11C605.59,245.58,605.5,245.76,604.64,245.76Z"/></g><g id="TIRETS"><rect class="cls-1" x="300.78" y="379.31" width="46.38" height="12.17"/><rect class="cls-1" x="300.78" y="267.57" width="46.38" height="12.17"/><rect class="cls-1" x="300.62" y="155.92" width="46.38" height="12.17"/><rect class="cls-1" x="300.78" y="45.82" width="46.38" height="12.17"/></g></g><g id="ZONE_SAUVERGARDE" data-name="ZONE SAUVERGARDE"><rect class="cls-2" width="651.97" height="516.06"/></g></svg>