<?xml version="1.0" encoding="utf-8"?>
<!-- Generator: Adobe Illustrator 23.0.2, SVG Export Plug-In . SVG Version: 6.00 Build 0)  -->
<svg version="1.1" id="Calque_1" xmlns="http://www.w3.org/2000/svg" xmlns:xlink="http://www.w3.org/1999/xlink" x="0px" y="0px"
	 viewBox="0 0 1597 921.4" style="enable-background:new 0 0 1597 921.4;" xml:space="preserve">
<style type="text/css">
	.st0{display:none;}
	.st1{display:inline;}
	.st2{clip-path:url(#SVGID_2_);}
	.st3{fill:#FFFFFF;}
	.st4{clip-path:url(#SVGID_4_);}
	.st5{fill:#B3B3B3;}
	.st6{fill:#6EC6D9;}
	.st7{fill:#EE7AAA;}
	.st8{fill:#D4155B;}
	.st9{fill:#EB5B27;}
	.st10{fill:#C1282E;}
	.st11{fill:#2BABE2;}
	.st12{fill:#C7B29A;}
	.st13{fill:url(#SVGID_5_);}
	.st14{fill:url(#SVGID_6_);}
	.st15{clip-path:url(#SVGID_8_);}
	.st16{fill:none;}
	.st17{fill:#459681;}
	.st18{fill:#A4D1A5;}
	.st19{fill:#8DC044;}
	.st20{fill:#1D8D37;}
</style>
<title>clouds</title>
<g class="st0">
	<g id="Calque_1-2" class="st1">
		<g>
			<g>
				<defs>
					<rect id="SVGID_1_" x="1.2" y="141.3" width="1595.8" height="990.6"/>
				</defs>
				<clipPath id="SVGID_2_">
					<use xlink:href="#SVGID_1_"  style="overflow:visible;"/>
				</clipPath>
				<g class="st2">
					<path class="st3" d="M0,716.6c0,0,63-103.7,140-17.7c0,0,59-40.5,64,17.7S146,784,146,784s86-37.6,105,21.1s-76,117.1-181,70.4
						c0,0-12,42.3-70,45.8V716.6z"/>
					<path class="st3" d="M1597,266c0,0-63-103.7-140-17.7c0,0-59-40.5-64,17.7s58,67.4,58,67.4s-86-37.6-105,21.1
						s76,117.2,181,70.4c0,0,12,42.3,70,45.8V266z"/>
				</g>
			</g>
		</g>
	</g>
</g>
<g class="st0">
	<g class="st1">
		<g id="Calque_1-2_1_">
			<g>
				<g>
					<defs>
						<rect id="SVGID_3_" x="0.6" width="1596.4" height="921.4"/>
					</defs>
					<clipPath id="SVGID_4_">
						<use xlink:href="#SVGID_3_"  style="overflow:visible;"/>
					</clipPath>
					<g class="st4">
						<g>
							<polygon class="st5" points="160,221.8 119.8,149.1 160,76.5 199.3,149.1 							"/>
							<polygon class="st6" points="199.7,149.1 159.5,76.5 199.7,3.8 239,76.5 							"/>
							<polygon class="st5" points="120.3,149.1 80.1,76.5 120.3,3.8 159.5,76.5 							"/>
							<polygon class="st5" points="279.2,294.5 239,221.8 279.2,149.1 318.5,221.8 							"/>
							<polygon class="st5" points="318.9,221.8 278.7,149.1 318.9,76.5 358.2,149.1 							"/>
							<polygon class="st5" points="239.5,221.8 199.3,149.1 239.5,76.5 278.7,149.1 							"/>
							<polygon class="st7" points="1.1,220.4 -39.1,147.7 1.1,75 40.3,147.7 							"/>
							<polygon class="st8" points="40.8,147.7 0.6,75 40.8,2.4 80.1,75 							"/>
							<polygon class="st5" points="-38.6,147.7 -78.9,75 -38.6,2.4 0.6,75 							"/>
							<polygon class="st9" points="80.5,367.1 40.3,294.5 80.5,221.8 119.8,294.5 							"/>
							<polygon class="st10" points="120.3,294.5 80.1,221.8 120.3,149.1 159.5,221.8 							"/>
							<polygon class="st11" points="40.8,294.5 0.6,221.8 40.8,149.1 80.1,221.8 							"/>
							<polygon class="st5" points="358.7,149.1 318.5,76.5 358.7,3.8 397.9,76.5 							"/>
							<polygon class="st5" points="398.4,76.5 358.2,3.8 398.4,-68.9 437.7,3.8 							"/>
							<polygon class="st5" points="318.9,76.5 278.7,3.8 318.9,-68.9 358.2,3.8 							"/>
							<polygon class="st8" points="397.9,369.2 357.7,296.6 397.9,223.9 437.2,296.6 							"/>
							<polygon class="st5" points="437.6,296.6 397.4,223.9 437.6,151.2 476.9,223.9 							"/>
							<polygon class="st12" points="358.2,296.6 318,223.9 358.2,151.2 397.4,223.9 							"/>
						</g>
						<g>
							<polygon class="st5" points="1467,868.5 1424.1,791.1 1467,713.7 1508.8,791.1 							"/>
							<polygon class="st6" points="1509.3,791.1 1466.5,713.7 1509.3,636.3 1551.1,713.7 							"/>
							<polygon class="st5" points="1424.6,791.1 1381.8,713.7 1424.6,636.3 1466.5,713.7 							"/>
							<polygon class="st5" points="1593.9,945.9 1551.1,868.5 1593.9,791.1 1635.7,868.5 							"/>
							<polygon class="st5" points="1636.3,868.5 1593.4,791.1 1636.3,713.7 1678.1,791.1 							"/>
							<polygon class="st5" points="1551.6,868.5 1508.8,791.1 1551.6,713.7 1593.4,791.1 							"/>
							<polygon class="st7" points="1297.7,867 1254.9,789.6 1297.7,712.2 1339.5,789.6 							"/>
							<polygon class="st8" points="1340,789.6 1297.2,712.2 1340,634.8 1381.8,712.2 							"/>
							<polygon class="st5" points="1255.4,789.6 1212.5,712.2 1255.4,634.8 1297.2,712.2 							"/>
							<polygon class="st9" points="1382.3,1023.3 1339.5,945.9 1382.3,868.5 1424.1,945.9 							"/>
							<polygon class="st10" points="1424.6,945.9 1381.8,868.5 1424.6,791.1 1466.5,868.5 							"/>
							<polygon class="st11" points="1340,945.9 1297.2,868.5 1340,791.1 1381.8,868.5 							"/>
							<polygon class="st5" points="1678.6,791.1 1635.7,713.7 1678.6,636.3 1720.4,713.7 							"/>
							<polygon class="st5" points="1720.9,713.7 1678.1,636.3 1720.9,558.9 1762.7,636.3 							"/>
							<polygon class="st5" points="1636.3,713.7 1593.4,636.3 1636.3,558.9 1678.1,636.3 							"/>
							<polygon class="st8" points="1720.4,1025.5 1677.5,948.1 1720.4,870.7 1762.2,948.1 							"/>
							<polygon class="st5" points="1762.7,948.1 1719.9,870.7 1762.7,793.3 1804.5,870.7 							"/>
							<polygon class="st12" points="1678,948.1 1635.2,870.7 1678,793.3 1719.9,870.7 							"/>
						</g>
						
							<linearGradient id="SVGID_5_" gradientUnits="userSpaceOnUse" x1="258" y1="-355.9219" x2="258" y2="-74.0275" gradientTransform="matrix(1 0 0 1 0 346.3829)">
							<stop  offset="0" style="stop-color:#AEDCE7;stop-opacity:0.6"/>
							<stop  offset="1" style="stop-color:#D1E4BA;stop-opacity:0.6"/>
						</linearGradient>
						<ellipse class="st13" cx="258" cy="119.4" rx="147.6" ry="137"/>
						
							<linearGradient id="SVGID_6_" gradientUnits="userSpaceOnUse" x1="1557.3" y1="257.4841" x2="1557.3" y2="423.7507" gradientTransform="matrix(1 0 0 1 0 346.3829)">
							<stop  offset="0" style="stop-color:#AEDCE7;stop-opacity:0.6"/>
							<stop  offset="1" style="stop-color:#D1E4BA;stop-opacity:0.6"/>
						</linearGradient>
						<ellipse class="st14" cx="1557.3" cy="679.9" rx="87" ry="80.8"/>
					</g>
				</g>
			</g>
		</g>
	</g>
</g>
<g>
	<g id="Calque_1-2_2_">
		<g>
			<defs>
				<rect id="SVGID_7_" x="91.9" y="-215.5" width="1505.1" height="1017.2"/>
			</defs>
			<clipPath id="SVGID_8_">
				<use xlink:href="#SVGID_7_"  style="overflow:visible;"/>
			</clipPath>
			<g class="st15">
				<path class="st16" d="M160.4,766.4c0.4-4.5,0.8-8.4,1.2-11.7c-14.3,13.6-26.6,29.5-36.4,47.1h3.2l-1.1-0.5
					C127.2,801.3,156.9,803.7,160.4,766.4z"/>
				<path class="st17" d="M210.3,706.5L210.3,706.5c0.2-1.5,0.4-3,0.5-4.4c-3.5,13.2-11.5,24.5-22.4,31.4c-4.8,3.1-9.3,6.3-13.5,9.6
					c2.7,4.9,6.4,13.5,6.4,23.4C188.9,749.3,199.6,727.4,210.3,706.5z"/>
				<path class="st17" d="M262.2,688.1c-25.2-12.4,26.3-33.6,1.2-65.9c-25.2-32.3-30.9,9.9-37.7,32.3c-3.3,10.8-9,12-15.5,12.3
					c2.9,9.5,3.6,19.6,2,29.5c0,2.6-0.2,5.2-0.5,7.7c18.1-35.3,35.6-67.5,37.1-70.3l0.8,0.5c-0.3,0.5-9.3,17.1-21.2,39.7
					c11-12.5,30.2-16.2,30.5-16.3l0.2,1c-0.3,0.1-26.6,5.1-34.8,23.3h-0.1c-7.8,14.9-16.4,31.7-24.4,47.8
					c13.5-17.2,34.8-17.4,35.1-17.4v1c-0.3,0-26.6,0.3-38.9,24.1l-1,2.1c-0.3,0.7-0.6,1.3-0.9,2h-0.1
					c-12.3,25.4-21.8,47.5-22.2,55.2l-0.9-0.1c0.2-4.9,4-15.1,9.6-28.2h-0.1c0.6-10.5-3.4-19.8-6.2-24.9c-4.5,3.6-8.7,7.2-12.6,11
					c-0.4,3.3-0.7,7.2-1.2,11.7c-3.4,37.3-33.2,34.8-33.2,34.8l1.1,0.5H199c9.9-5,15.8-11.7,9.5-20.4
					c-17.2-23.6,45.8-18.6,29.8-42.3C222.2,715.7,287.4,700.5,262.2,688.1z"/>
				<path class="st18" d="M210.3,706.5c-10.7,21-21.4,42.8-29,60.1c0,0.7,0,1.4-0.1,2.2l-0.9-0.1c-5.7,13.1-9.4,23.3-9.6,28.2
					l0.9,0.1c0.4-7.7,9.9-29.7,22.2-55.2l-0.8-0.4c1.7-4.2,3.9-8,6.6-11.5c8-16.1,16.6-32.9,24.4-47.8l-0.8-0.4c1.3-2.8,3-5.4,5-7.6
					c11.9-22.6,21-39.3,21.2-39.7l-0.8-0.5c-1.5,2.7-19,34.9-37.1,70.3c-0.1,0.8-0.2,1.7-0.4,2.6L210.3,706.5z"/>
				<path class="st18" d="M195.9,737.6c-0.3,0.7-0.7,1.4-1,2.1L195.9,737.6z"/>
				<path class="st18" d="M224.1,682.1c8.2-18.2,34.5-23.3,34.8-23.3l-0.2-1c-0.2,0-19.5,3.8-30.5,16.3L224.1,682.1L224.1,682.1z"/>
				<path class="st18" d="M224,682.1l4.2-8c-2,2.2-3.7,4.8-5,7.6L224,682.1z"/>
				<path class="st18" d="M210.3,706.5L210.3,706.5c0.5-0.8,0.9-1.6,1.3-2.4c0.3-2.6,0.5-5.2,0.5-7.7c-0.3,1.9-0.7,3.9-1.2,5.8
					C210.7,703.5,210.5,705,210.3,706.5z"/>
				<path class="st18" d="M211.2,706.6c0.1-0.9,0.3-1.7,0.4-2.6c-0.4,0.8-0.8,1.6-1.2,2.4L211.2,706.6z"/>
				<path class="st18" d="M234.7,713.5v-1c-0.3,0-21.6,0.2-35.1,17.4c-1.3,2.6-2.5,5.2-3.8,7.7C208.2,713.8,234.5,713.5,234.7,713.5
					z"/>
				<path class="st18" d="M194,741.8c0.3-0.7,0.6-1.4,0.9-2L194,741.8L194,741.8z"/>
				<path class="st18" d="M193.9,741.7l0.9-2c0.3-0.7,0.7-1.4,1-2.1c1.3-2.6,2.5-5.1,3.8-7.7c-2.7,3.4-4.9,7.3-6.6,11.5L193.9,741.7
					z"/>
				<path class="st18" d="M174.9,743.1l-0.8,0.6c2.8,5.1,6.8,14.5,6.2,24.9h0.1l0.9-2.1C181.3,756.7,177.6,748.1,174.9,743.1z"/>
				<path class="st18" d="M181.3,766.6l-0.9,2.1l0.9,0.1C181.3,768,181.3,767.3,181.3,766.6z"/>
				<path class="st19" d="M161.5,754.6c1.6-14.6,3.2-19,9.2-23.5c-17.1,1-56.3,5.7-62,27.7l-0.3-0.1c-1.8,13-1.7,26.3,0.3,39.2
					l-0.9,0.2c-3.6-24-0.9-44.8,5-62.3h-0.2c-1.5-13.5-0.6-27.3,2.6-40.5l0.9,0.3c-3.1,12.5-4,25.6-2.8,38.5
					c4.2-11.8,9.9-22.8,17-32.8l0,0l0.1-0.1c3.2-4.5,6.6-8.8,10.2-12.9c2-2.2,4-4.3,6-6.3c-1.4-13.1,8.3-33.1,8.7-33.9l0.8,0.5
					c-0.2,0.2-9.6,19.8-8.6,32.6c11.1-11.1,23.7-20.4,37.2-27.7l0.4,0.9c-16.3,8.8-31.1,20.5-43.8,34.7c-2.9,3.2-5.8,6.9-8.7,10.8
					c22-12.8,58.9-4.3,59.3-4.2l-0.2,1c-0.4-0.1-39.2-9-60.6,5.4c-11.2,15.6-18.8,33.9-22.2,53.4c8.9-20.9,47.9-24.7,63.4-25.4
					c3.8-2.6,9.1-5.6,16.6-10.8c25.2-17.4-14.9-28.6-1.2-44.7c7.1-8.4,15.2-7.4,22.2-7.6c-9-28.9-38.6-46.1-75.5-5.4
					c-46.7,51.6-35.9,110.9-26,140.4h16.6C135,784.1,147.2,768.2,161.5,754.6z"/>
				<path class="st19" d="M156.2,648.6l-0.8-0.5c-0.4,0.9-10.1,20.9-8.7,33.9l0.9-0.9C146.6,668.4,156.1,648.8,156.2,648.6z"/>
				<path class="st19" d="M187.8,674.4c-13.7,16.2,26.3,27.3,1.2,44.7c-7.5,5.2-12.8,8.2-16.6,10.8c3.5-0.2,5.9-0.2,6.3-0.2v1
					c-0.1,0-3.2,0-7.9,0.3c-6,4.6-7.6,8.9-9.2,23.5c3.9-3.7,8.1-7.4,12.6-11c-0.8-1.5-1.7-2.9-2.7-4.3l0.7-0.6
					c1,1.4,1.9,2.9,2.8,4.4c4.2-3.3,8.7-6.6,13.5-9.6c10.9-7,18.9-18.2,22.3-31.4c1.7-17.9-5-27.2-5-27.3l0.7-0.6
					c0.3,0.4,5.6,7.7,5.5,22.2c1.6-9.9,0.9-20-2-29.5C203,667,194.9,666.1,187.8,674.4z"/>
				<path class="st19" d="M206.5,674.1l-0.7,0.6c0.1,0.1,6.7,9.4,5,27.3c0.5-1.9,0.9-3.8,1.2-5.8
					C212.1,681.8,206.8,674.5,206.5,674.1z"/>
				<path class="st19" d="M172.2,738.8l-0.7,0.6c1,1.4,1.9,2.8,2.7,4.3l0.8-0.6C174.1,741.6,173.2,740.2,172.2,738.8z"/>
				<path class="st20" d="M141.4,689.1c12.7-14.2,27.5-25.9,43.8-34.7l-0.4-0.9c-13.5,7.3-26.1,16.7-37.2,27.8
					c0,0.4,0.1,0.8,0.1,1.3l-0.9,0.1l-0.1-0.6c-2,2-4,4.1-6,6.3c-3.6,4.1-7.1,8.4-10.2,12.9c0.7-0.5,1.4-0.9,2.2-1.4
					C135.5,696,138.5,692.4,141.4,689.1z"/>
				<path class="st20" d="M108.9,755.5c3.4-19.5,11-37.8,22.2-53.4l-0.2,0.2l-0.5-0.8c-7.1,10-12.8,21-17,32.8
					c0.1,0.5,0.1,1,0.2,1.6l-0.8,0.1c-5.9,17.5-8.6,38.3-5,62.3l0.9-0.2c-2-13-2.1-26.2-0.3-39.2l-0.6-0.2
					C108.1,757.6,108.5,756.5,108.9,755.5z"/>
				<path class="st20" d="M147.7,682.5c-0.1-0.4-0.1-0.8-0.1-1.3l-0.9,0.9l0.1,0.6L147.7,682.5z"/>
				<path class="st20" d="M191.7,696.7l0.2-1c-0.4-0.1-37.3-8.6-59.3,4.2c-0.5,0.7-1,1.4-1.5,2.1
					C152.5,687.7,191.3,696.6,191.7,696.7z"/>
				<path class="st20" d="M130.4,701.4L130.4,701.4l0.1-0.1L130.4,701.4z"/>
				<path class="st20" d="M131.1,702.1c0.5-0.7,1-1.4,1.5-2.1c-0.7,0.4-1.5,0.9-2.2,1.4l-0.1,0.1l0.5,0.8L131.1,702.1z"/>
				<path class="st20" d="M116.2,695.7l-0.9-0.3c-3.2,13.2-4.1,26.9-2.6,40.5h0.2c0.2-0.6,0.4-1.2,0.6-1.7
					C112.2,721.3,113.1,708.3,116.2,695.7z"/>
				<path class="st20" d="M113.4,734.2c-0.2,0.6-0.4,1.1-0.6,1.7l0.8-0.1C113.5,735.2,113.5,734.7,113.4,734.2z"/>
				<path class="st20" d="M108.9,755.5c-0.2,1.1-0.4,2.2-0.5,3.3l0.3,0.1c5.7-22,44.9-26.7,62-27.7c0.5-0.4,1-0.8,1.6-1.2
					C156.8,730.7,117.8,734.6,108.9,755.5z"/>
				<path class="st20" d="M178.7,729.9c-0.5,0-2.8,0-6.3,0.2c-0.6,0.4-1.1,0.8-1.6,1.2c4.7-0.3,7.8-0.3,7.9-0.3L178.7,729.9z"/>
				<path class="st20" d="M107.8,758.6l0.6,0.2c0.2-1.1,0.3-2.2,0.5-3.3C108.5,756.5,108.1,757.5,107.8,758.6z"/>
				<ellipse class="st19" cx="195.5" cy="609.2" rx="8" ry="8.7"/>
				<polygon class="st19" points="1631,882.7 1631,882.7 1631,882.7 				"/>
				<path class="st20" d="M1630.6,882.8l0.4-0.1l-0.6-0.5L1630.6,882.8z"/>
				<path class="st20" d="M1631.5,882.5c0-0.1-0.3-0.9-0.7-2.4c0.2,1.7,0.3,2.6,0.3,2.6L1631.5,882.5z"/>
				<path class="st19" d="M1581,801.8h16v-13.1c-1.3-2.9-2.5-5.9-3.8-8.8c-3.8-8.7-8-17.7-12.5-26.6c-11.9-10-33.4-20.1-68.7-11.4
					c-0.7,0.2-1.4,0.4-2.1,0.4l0.1-1c0.2,0,0.9-0.2,1.7-0.4c34-8.4,55.4,0.5,67.8,10.2c-19.3-37.7-43.9-72.7-68.8-72.7h-0.7v-1
					c14.2-0.3,29.4,10.2,45.3,31.5c3.4,4.6,6.9,9.7,10.4,15.4c2.1-13.4-4.9-48.4-4.9-48.8l0.9-0.2c0.3,1.5,7.5,37.3,4.8,50.2
					c9.1,14.8,18.4,32.9,27.6,54.1c1,2.3,2,4.5,2.9,6.8v-65.5c-18.6-50.3-46.1-86.6-85.5-60.4c-48.7,32.3-13.2,92.1,31.4,141.5h27.8
					C1574.1,801.5,1577.6,801.5,1581,801.8z"/>
				<path class="st20" d="M1594.1,779.4c-9.3-21.2-18.5-39.3-27.6-54.1c0,0.1,0,0.2,0,0.2l-0.9-0.2c0.1-0.4,0.2-0.8,0.2-1.2
					c-3.5-5.6-6.9-10.7-10.4-15.4c-15.8-21.3-31.1-31.9-45.3-31.5v1h0.7c25,0,49.6,35,68.8,72.7c0.6,0.5,1.2,1,1.8,1.5l-0.6,0.8
					l-0.1-0.1c4.5,8.9,8.7,17.9,12.5,26.6c1.3,2.9,2.5,5.9,3.8,8.8v-2.5C1596,783.9,1595.1,781.7,1594.1,779.4z"/>
				<path class="st20" d="M1561.7,675.2l-0.9,0.2c0.1,0.4,7.1,35.3,4.9,48.8l0.7,1.2C1569.2,712.5,1562,676.7,1561.7,675.2z"/>
				<path class="st20" d="M1566.4,725.6c0-0.1,0-0.2,0-0.2l-0.7-1.2c-0.1,0.4-0.1,0.8-0.2,1.2L1566.4,725.6z"/>
				<path class="st20" d="M1511.9,740.8c-0.8,0.2-1.6,0.4-1.7,0.4l-0.1,1c0.7,0,1.4-0.2,2.1-0.4c35.3-8.7,56.8,1.4,68.7,11.4
					l-1.1-2.2C1567.3,741.3,1545.9,732.4,1511.9,740.8z"/>
				<path class="st20" d="M1581.4,752.5c-0.6-0.5-1.2-1-1.8-1.5l1.1,2.2l0.1,0.1L1581.4,752.5z"/>
			</g>
		</g>
	</g>
</g>
</svg>
