<svg xmlns="http://www.w3.org/2000/svg" viewBox="0 0 180.8 196.5"><defs><style>.cls-1{fill:none;}.cls-2{fill:#459681;}.cls-3{fill:#a4d1a5;}.cls-4{fill:#8dc044;}.cls-5{fill:#1d8d37;}</style></defs><title>leaf_2</title><g id="Calque_2" data-name="Calque 2"><g id="Calque_1-2" data-name="Calque 1"><path class="cls-1" d="M64,162c.44-4.42.83-8.2,1.22-11.46a194.87,194.87,0,0,0-38.56,46h3.36L28.84,196S60.39,198.4,64,162Z"/><path class="cls-2" d="M117,103.48h-.06c.26-1.48.45-2.91.59-4.29a52,52,0,0,1-23.76,30.67c-5.08,3-9.84,6.18-14.33,9.42,2.86,4.81,6.82,13.22,6.8,22.88C94.27,145.26,105.66,123.94,117,103.48Z"/><path class="cls-2" d="M172,85.56c-26.69-12.14,27.91-32.76,1.21-64.31s-32.76,9.7-40,31.55c-3.5,10.51-9.54,11.74-16.48,12a58.32,58.32,0,0,1,2.12,28.8,59.32,59.32,0,0,1-.53,7.56c19.15-34.49,37.75-65.93,39.34-68.6l.86.51c-.28.47-9.91,16.74-22.5,38.79C147.65,59.63,168.05,56,168.3,55.94l.17,1c-.29,0-28.17,5-36.85,22.78l-.09,0c-8.26,14.57-17.39,30.94-25.82,46.68,14.34-16.79,36.92-17,37.19-17v1c-.3,0-28.2.31-41.21,23.57-.36.69-.73,1.37-1.08,2s-.64,1.3-.93,2l-.09,0c-13,24.84-23.12,46.35-23.53,53.86l-1-.06c.26-4.74,4.19-14.72,10.19-27.5h-.08c.65-10.23-3.56-19.29-6.56-24.34-4.77,3.49-9.22,7.07-13.36,10.69-.39,3.26-.78,7-1.22,11.46-3.64,36.4-35.19,34-35.19,34l1.21.52h74.89c10.54-4.85,16.8-11.4,10-19.94-18.2-23.05,48.54-18.2,31.55-41.25S198.72,97.69,172,85.56Z"/><path class="cls-3" d="M117,103.48c-11.33,20.46-22.72,41.78-30.76,58.67,0,.69,0,1.4-.06,2.11l-.92-.06c-6,12.78-9.93,22.76-10.19,27.5l1,.06c.41-7.51,10.52-29,23.53-53.86l-.83-.37a44.15,44.15,0,0,1,6.95-11.18c8.43-15.74,17.56-32.11,25.82-46.68l-.81-.4A29.59,29.59,0,0,1,136,71.82c12.59-22,22.22-38.32,22.5-38.79l-.86-.51c-1.59,2.67-20.19,34.11-39.34,68.6q-.17,1.23-.39,2.52Z"/><path class="cls-3" d="M101.69,133.9c-.37.67-.74,1.35-1.08,2C101,135.27,101.33,134.59,101.69,133.9Z"/><path class="cls-3" d="M131.62,79.71C140.3,62,168.18,57,168.47,56.93l-.17-1c-.25,0-20.65,3.69-32.3,15.88-1.45,2.54-2.95,5.17-4.47,7.85Z"/><path class="cls-3" d="M131.53,79.67c1.52-2.68,3-5.31,4.47-7.85a29.59,29.59,0,0,0-5.28,7.45Z"/><path class="cls-3" d="M116.93,103.47H117c.43-.79.87-1.58,1.31-2.36a59.32,59.32,0,0,0,.53-7.56,57.22,57.22,0,0,1-1.31,5.62C117.38,100.56,117.19,102,116.93,103.47Z"/><path class="cls-3" d="M117.91,103.64q.23-1.29.39-2.52c-.44.78-.88,1.57-1.31,2.36Z"/><path class="cls-3" d="M142.9,110.33v-1c-.27,0-22.85.23-37.19,17q-2,3.81-4,7.55C114.7,110.64,142.6,110.33,142.9,110.33Z"/><path class="cls-3" d="M99.68,137.93c.29-.68.61-1.33.93-2l-1,2Z"/><path class="cls-3" d="M99.59,137.9l1-2c.34-.7.71-1.38,1.08-2q2-3.74,4-7.55a44.15,44.15,0,0,0-6.95,11.18Z"/><path class="cls-3" d="M79.43,139.27l-.82.58c3,5.05,7.21,14.11,6.56,24.34h.08l1-2C86.25,152.49,82.29,144.08,79.43,139.27Z"/><path class="cls-3" d="M86.23,162.15l-1,2,.92.06C86.21,163.55,86.23,162.84,86.23,162.15Z"/><path class="cls-4" d="M65.25,150.54C67,136.25,68.68,132,75,127.59c-18.12,1-59.71,5.61-65.73,27.06l-.36-.1a122.88,122.88,0,0,0,.37,38.31l-1,.16c-3.81-23.45-.94-43.73,5.28-60.84l-.16,0a104.31,104.31,0,0,1,2.78-39.51l.95.3a103.89,103.89,0,0,0-2.93,37.5,127.5,127.5,0,0,1,18-32l0,0,.12-.07A146,146,0,0,1,43.19,85.82c2.1-2.17,4.22-4.23,6.33-6.19-1.47-12.77,8.77-32.3,9.21-33.14l.89.47c-.11.2-10.14,19.33-9.18,31.84A169.91,169.91,0,0,1,89.91,51.73l.41.92A169.88,169.88,0,0,0,43.89,86.54c-3.07,3.17-6.19,6.69-9.25,10.54C58,84.58,97.1,92.87,97.5,93l-.21,1c-.41-.09-41.61-8.82-64.28,5.24A121.26,121.26,0,0,0,9.49,151.3c9.41-20.4,50.77-24.16,67.24-24.84,4-2.56,9.63-5.47,17.63-10.57,26.7-17-15.77-27.91-1.21-43.68C100.7,64,109.23,65,116.71,64.76c-9.58-28.26-40.9-45.05-80-5.29C-12.79,109.86-1.35,167.7,9.14,196.5H26.69A194.87,194.87,0,0,1,65.25,150.54Z"/><path class="cls-4" d="M59.62,47l-.89-.47c-.44.84-10.68,20.37-9.21,33.14l.92-.83C49.48,66.29,59.51,47.16,59.62,47Z"/><path class="cls-4" d="M93.15,72.21C78.59,88,121.06,98.9,94.36,115.89c-8,5.1-13.61,8-17.63,10.57,3.76-.15,6.23-.15,6.72-.15v1c-.14,0-3.36,0-8.41.28-6.35,4.45-8.07,8.66-9.78,22.95,4.14-3.62,8.59-7.2,13.36-10.69a41.24,41.24,0,0,0-2.83-4.23l.77-.63a40.45,40.45,0,0,1,2.88,4.28c4.49-3.24,9.25-6.4,14.33-9.42a52,52,0,0,0,23.76-30.67c1.8-17.52-5.27-26.56-5.34-26.66l.77-.62c.29.35,5.92,7.53,5.88,21.66a58.32,58.32,0,0,0-2.12-28.8C109.23,65,100.7,64,93.15,72.21Z"/><path class="cls-4" d="M113,71.9l-.77.62c.07.1,7.14,9.14,5.34,26.66a57.22,57.22,0,0,0,1.31-5.62C118.87,79.43,113.24,72.25,113,71.9Z"/><path class="cls-4" d="M76.55,135l-.77.63a41.24,41.24,0,0,1,2.83,4.23l.82-.58A40.45,40.45,0,0,0,76.55,135Z"/><path class="cls-5" d="M43.89,86.54A169.88,169.88,0,0,1,90.32,52.65l-.41-.92A169.91,169.91,0,0,0,50.44,78.8c0,.41.07.82.13,1.23l-1,.14-.06-.54c-2.11,2-4.23,4-6.33,6.19A146,146,0,0,0,32.33,98.41c.75-.47,1.52-.91,2.31-1.33C37.7,93.23,40.82,89.71,43.89,86.54Z"/><path class="cls-5" d="M9.49,151.3A121.26,121.26,0,0,1,33,99.17a2.26,2.26,0,0,0-.26.16l-.51-.81a127.5,127.5,0,0,0-18,32c.06.53.12,1,.19,1.58l-.83.11C7.39,149.29,4.52,169.57,8.33,193l1-.16a122.88,122.88,0,0,1-.37-38.31l-.6-.17A20.69,20.69,0,0,1,9.49,151.3Z"/><path class="cls-5" d="M50.57,80c-.06-.41-.1-.82-.13-1.23l-.92.83.06.54Z"/><path class="cls-5" d="M97.29,93.93l.21-1c-.4-.09-39.5-8.38-62.86,4.12-.55.68-1.09,1.38-1.63,2.09C55.68,85.11,96.88,93.84,97.29,93.93Z"/><path class="cls-5" d="M32.21,98.48l0,0,.09-.11Z"/><path class="cls-5" d="M33,99.17c.54-.71,1.08-1.41,1.63-2.09-.79.42-1.56.86-2.31,1.33l-.09.11.51.81A2.26,2.26,0,0,1,33,99.17Z"/><path class="cls-5" d="M17.18,93l-.95-.3a104.31,104.31,0,0,0-2.78,39.51l.16,0c.21-.57.43-1.13.64-1.69A103.89,103.89,0,0,1,17.18,93Z"/><path class="cls-5" d="M14.25,130.49c-.21.56-.43,1.12-.64,1.69l.83-.11C14.37,131.54,14.31,131,14.25,130.49Z"/><path class="cls-5" d="M9.49,151.3c-.2,1.08-.39,2.16-.55,3.25l.36.1c6-21.45,47.61-26.06,65.73-27.06.54-.37,1.1-.75,1.7-1.13C60.26,127.14,18.9,130.9,9.49,151.3Z"/><path class="cls-5" d="M83.45,126.31c-.49,0-3,0-6.72.15-.6.38-1.16.76-1.7,1.13,5-.28,8.27-.27,8.41-.28Z"/><path class="cls-5" d="M8.34,154.38l.6.17c.16-1.09.35-2.17.55-3.25A20.69,20.69,0,0,0,8.34,154.38Z"/><circle class="cls-4" cx="101.27" cy="8.5" r="8.5"/></g></g></svg>