<svg xmlns="http://www.w3.org/2000/svg" xmlns:xlink="http://www.w3.org/1999/xlink" viewBox="0 0 473.52 968.58"><defs><style>.cls-1{fill:#c4e4e1;}.cls-2{fill:#8dc044;}.cls-3{fill:#67972f;}.cls-4{fill:url(#Dégradé_sans_nom_54);}.cls-5{font-size:71.48px;fill:#fff;font-family:Pequena;}.cls-6{fill:url(#Dégradé_sans_nom_65);}.cls-7{fill:url(#Dégradé_sans_nom_85);}.cls-8{fill:url(#Dégradé_sans_nom_110);}.cls-9{fill:url(#Dégradé_sans_nom_120);}.cls-10{fill:url(#Dégradé_sans_nom_133);}.cls-11{fill:url(#Dégradé_sans_nom_100);}.cls-12{fill:url(#Dégradé_sans_nom_74);}.cls-13{fill:url(#Dégradé_sans_nom_174);}.cls-14{fill:url(#Dégradé_sans_nom_167);}.cls-15,.cls-21,.cls-23{fill:none;}.cls-15{stroke:#ed6936;stroke-width:3px;}.cls-15,.cls-23{stroke-linecap:round;}.cls-15,.cls-21{stroke-miterlimit:10;}.cls-16{fill:url(#Dégradé_sans_nom_174-2);}.cls-17{fill:url(#Dégradé_sans_nom_174-3);}.cls-18{fill:#ed6936;}.cls-19{fill:url(#Dégradé_sans_nom_6);}.cls-20{fill:url(#Dégradé_sans_nom_10);}.cls-21,.cls-23{stroke:#843b21;stroke-width:0.5px;}.cls-22{fill:url(#Dégradé_sans_nom_46);}.cls-23{stroke-linejoin:round;}</style><linearGradient id="Dégradé_sans_nom_54" x1="112.39" y1="248.71" x2="235.67" y2="135.7" gradientUnits="userSpaceOnUse"><stop offset="0" stop-color="#bde0da"/><stop offset="1" stop-color="#85b3b5"/></linearGradient><linearGradient id="Dégradé_sans_nom_65" x1="251.79" y1="239.34" x2="334.91" y2="160.89" gradientUnits="userSpaceOnUse"><stop offset="0" stop-color="#abd5b6"/><stop offset="1" stop-color="#9ac0a4"/></linearGradient><linearGradient id="Dégradé_sans_nom_85" x1="229.79" y1="357.43" x2="168.15" y2="451.76" gradientUnits="userSpaceOnUse"><stop offset="0" stop-color="#c2a088"/><stop offset="1" stop-color="#efc3a5"/></linearGradient><linearGradient id="Dégradé_sans_nom_110" x1="186.74" y1="624.87" x2="250.25" y2="556.69" gradientUnits="userSpaceOnUse"><stop offset="0" stop-color="#bec1e2"/><stop offset="1" stop-color="#a4a7c4"/></linearGradient><linearGradient id="Dégradé_sans_nom_120" x1="288.66" y1="634.87" x2="211.14" y2="729.2" gradientUnits="userSpaceOnUse"><stop offset="0" stop-color="#c598bd"/><stop offset="1" stop-color="#d6bfde"/></linearGradient><linearGradient id="Dégradé_sans_nom_133" x1="301.47" y1="774.61" x2="209.01" y2="846.53" gradientUnits="userSpaceOnUse"><stop offset="0" stop-color="#a1c9d1"/><stop offset="1" stop-color="#b3dbcc"/></linearGradient><linearGradient id="Dégradé_sans_nom_100" x1="354.77" y1="393.18" x2="251.1" y2="491.25" gradientUnits="userSpaceOnUse"><stop offset="0" stop-color="#c6cfab"/><stop offset="1" stop-color="#e0ebc0"/></linearGradient><linearGradient id="Dégradé_sans_nom_74" x1="186.11" y1="364.59" x2="273.91" y2="287.07" gradientUnits="userSpaceOnUse"><stop offset="0" stop-color="#f0bbbf"/><stop offset="1" stop-color="#d5a8ab"/></linearGradient><linearGradient id="Dégradé_sans_nom_174" x1="142.91" y1="882.55" x2="115.27" y2="892.71" gradientUnits="userSpaceOnUse"><stop offset="0" stop-color="#cb8732"/><stop offset="1" stop-color="#fde4d1"/></linearGradient><linearGradient id="Dégradé_sans_nom_167" x1="169.07" y1="914.59" x2="115.1" y2="939.5" gradientUnits="userSpaceOnUse"><stop offset="0" stop-color="#cb8732"/><stop offset="1" stop-color="#d7db2d"/></linearGradient><linearGradient id="Dégradé_sans_nom_174-2" x1="147.3" y1="898.58" x2="121.03" y2="908.24" xlink:href="#Dégradé_sans_nom_174"/><linearGradient id="Dégradé_sans_nom_174-3" x1="134.02" y1="902.62" x2="134" y2="902.63" xlink:href="#Dégradé_sans_nom_174"/><linearGradient id="Dégradé_sans_nom_6" x1="194.01" y1="171.53" x2="298.01" y2="20.53" gradientUnits="userSpaceOnUse"><stop offset="0" stop-color="#bde0da"/><stop offset="1" stop-color="#006285"/></linearGradient><linearGradient id="Dégradé_sans_nom_10" x1="200.8" y1="957.47" x2="234.8" y2="902.47" gradientUnits="userSpaceOnUse"><stop offset="0" stop-color="#a1c9d1"/><stop offset="1" stop-color="#65b32e"/></linearGradient><linearGradient id="Dégradé_sans_nom_46" x1="334.6" y1="383.74" x2="321.93" y2="323.75" gradientUnits="userSpaceOnUse"><stop offset="0" stop-color="#d46033"/><stop offset="1" stop-color="#fcc980"/></linearGradient></defs><title>marelle</title><g id="Calque_2" data-name="Calque 2"><g id="Calque_1-2" data-name="Calque 1"><ellipse class="cls-1" cx="236.76" cy="954.33" rx="236.76" ry="14.25"/><path class="cls-2" d="M114.59,124.91s-2.49-49-14.53-37.36S114.59,124.91,114.59,124.91Z"/><path class="cls-3" d="M114.59,124.91s-7.89-19.09-20.13-16.81S114.59,124.91,114.59,124.91Z"/><circle class="cls-2" cx="87.09" cy="94.92" r="2.8"/><path class="cls-2" d="M297.72,886.13s4.42-27.54,23.1-25S297.72,886.13,297.72,886.13Z"/><path class="cls-3" d="M297.72,886.13s12.16-10.41,27.9-4.81S297.72,886.13,297.72,886.13Z"/><circle class="cls-3" cx="333.89" cy="868.87" r="1.87"/><rect class="cls-4" x="114.59" y="129.61" width="122.17" height="122.17"/><text class="cls-5" transform="translate(158.62 212.16)">7</text><rect class="cls-6" x="242.24" y="129.61" width="122.17" height="122.17"/><text class="cls-5" transform="translate(284.7 212.16)">8</text><rect class="cls-7" x="111.85" y="383.35" width="122.17" height="122.17"/><text class="cls-5" transform="translate(150.52 468.83)">4</text><rect class="cls-8" x="175.55" y="510.22" width="122.17" height="122.17"/><text class="cls-5" transform="translate(213.41 593.67)">3</text><rect class="cls-9" x="175.55" y="637.09" width="122.17" height="122.17"/><text class="cls-5" transform="translate(216.52 721.01)">2</text><rect class="cls-10" x="175.55" y="763.96" width="122.17" height="122.17"/><text class="cls-5" transform="translate(218.39 849.27)">1</text><rect class="cls-11" x="239.5" y="383.35" width="122.17" height="122.17"/><text class="cls-5" transform="translate(280.66 468.83)">5</text><rect class="cls-12" x="178.29" y="256.48" width="122.17" height="122.17"/><text class="cls-5" transform="translate(218.39 340.74)">6</text><path class="cls-13" d="M134,902.63h0c-4.34,6.37-12.42,4.2-12.42,4.2L113.89,884a13,13,0,0,1-.78-6.61,5.58,5.58,0,0,1,4.06-4.21c4.83-1.63,7.53,1.82,9.16,6.64Z"/><path class="cls-14" d="M176.21,916.07c.93,2.76-8,8.42-21.62,14.19-4.19,1.77-5.68,5-6.87,11.48-2.85,15.57-13.44,4.52-13.44,4.52-4-4.07-8-6.11-12.42-5C107.53,944.91,97,945.8,96.06,943c-.79-2.35,5.56-6.8,15.86-11.62,6.91-3.24,12.75-11.53,11.42-18.93A12,12,0,0,0,136,908.22c3.41,6.69,13.07,9.77,20.54,8.17C167.68,914,175.42,913.71,176.21,916.07Z"/><path class="cls-15" d="M156.54,916.31c11.48-2.54,19.5-2.95,20.29-.61,1.23,3.69-15.85,12.76-38.17,20.26S97.25,946.58,96,942.89c-.77-2.29,5.59-6.69,15.9-11.49"/><path class="cls-16" d="M121.58,906.84l12.42-4.2C129.66,909,121.58,906.84,121.58,906.84Z"/><path class="cls-17" d="M134,902.63h0Z"/><path class="cls-18" d="M136,908.21a12,12,0,0,1-12.67,4.27,10.67,10.67,0,0,0-.42-1.64l-1.34-4s7.22.06,12.42-4.2l1.35,4A12.81,12.81,0,0,0,136,908.21Z"/><path class="cls-19" d="M114.59,124.91a124.92,124.92,0,0,1,249.83,0Z"/><path class="cls-20" d="M297.72,890.83a61.09,61.09,0,0,1-122.17,0Z"/><line class="cls-21" x1="332.14" y1="327.64" x2="339.98" y2="366.01"/><line class="cls-21" x1="309.35" y1="332.56" x2="317.18" y2="370.93"/><line class="cls-21" x1="313.9" y1="331.58" x2="321.74" y2="369.95"/><line class="cls-21" x1="318.46" y1="330.59" x2="326.3" y2="368.96"/><line class="cls-21" x1="323.02" y1="329.61" x2="330.86" y2="367.98"/><line class="cls-21" x1="327.58" y1="328.62" x2="335.42" y2="366.99"/><line class="cls-21" x1="336.7" y1="326.65" x2="344.53" y2="365.02"/><path class="cls-22" d="M361.81,356.89c-4-10.32-9.29-20-11.25-28.24h0a5,5,0,0,0,1.43-.15c5.44-1.31,11.84-7.94,2.33-14.25-7-4.66-14,1.5-14.61,9.73l-33.92,7.07,0,0c-3.65-7.48-12.57-10.44-17.27-3.25-6.31,9.65,2.11,13.15,7.61,12.15a3.46,3.46,0,0,0,2.9-2.11c0,1.08.32,25.48-.55,28.17s-.16,27.39,17.89,21.73,19.84-5.66,34.41-7S365.77,367.22,361.81,356.89Zm-13.92,14.18s-3.49-2.45-.92-5.57c0,0-13.69-3.28-32,6.46h0c3.56,1.83,1.28,5.49,1.28,5.49-12.63,8.66-10.36-24-8.91-37.3a16.71,16.71,0,0,0-.71-7.08l0,0,33.08-6.8h0a16.82,16.82,0,0,0,2.07,6.86C348.23,344.83,362.81,373.91,347.89,371.07Z"/><path class="cls-23" d="M352.43,321s-2.27-2.9-4.46,0-.9,10.4,6.18,6.69c0,0,6.42-2.7,4.69-8.5"/><path class="cls-23" d="M292.76,333.2s1.15-3.52,4.19-1.56,4.33,9.45-3.55,8.48c0,0-6.89-.42-7.11-6.08"/><path class="cls-23" d="M315,372s15.05-9,32-6.46"/></g></g></svg>