<svg xmlns="http://www.w3.org/2000/svg" viewBox="0 0 555.54 471.68"><defs><style>.cls-1{isolation:isolate;}.cls-2{mix-blend-mode:overlay;}.cls-3{fill:#b3b3b3;}.cls-4{fill:#6ec6d9;}.cls-5{fill:#ee7aaa;}.cls-6{fill:#d4155b;}.cls-7{fill:#eb5b27;}.cls-8{fill:#c1282e;}.cls-9{fill:#2babe2;}.cls-10{fill:#c7b29a;}</style></defs><title>triangles_2</title><g class="cls-1"><g id="Calque_2" data-name="Calque 2"><g id="Calque_1-2" data-name="Calque 1"><g class="cls-2"><polygon class="cls-3" points="238.78 312.94 198.59 234.71 238.78 156.47 278.02 234.71 238.78 312.94"/><polygon class="cls-4" points="278.49 234.71 238.3 156.47 278.49 78.23 317.74 156.47 278.49 234.71"/><polygon class="cls-3" points="199.06 234.71 158.87 156.47 199.06 78.23 238.3 156.47 199.06 234.71"/><polygon class="cls-3" points="357.93 391.18 317.74 312.94 357.93 234.71 397.17 312.94 357.93 391.18"/><polygon class="cls-3" points="397.65 312.94 357.46 234.71 397.65 156.47 436.89 234.71 397.65 312.94"/><polygon class="cls-3" points="318.21 312.94 278.02 234.71 318.21 156.47 357.46 234.71 318.21 312.94"/><polygon class="cls-5" points="79.91 311.4 39.72 233.17 79.91 154.93 119.15 233.17 79.91 311.4"/><polygon class="cls-6" points="119.63 233.17 79.44 154.93 119.63 76.7 158.87 154.93 119.63 233.17"/><polygon class="cls-3" points="40.19 233.17 0 154.93 40.19 76.7 79.44 154.93 40.19 233.17"/><polygon class="cls-7" points="159.34 469.41 119.15 391.18 159.34 312.94 198.59 391.18 159.34 469.41"/><polygon class="cls-8" points="199.06 391.18 158.87 312.94 199.06 234.71 238.3 312.94 199.06 391.18"/><polygon class="cls-9" points="119.63 391.18 79.44 312.94 119.63 234.71 158.87 312.94 119.63 391.18"/><polygon class="cls-3" points="437.36 234.71 397.17 156.47 437.36 78.23 476.61 156.47 437.36 234.71"/><polygon class="cls-3" points="477.08 156.47 436.89 78.23 477.08 0 516.33 78.23 477.08 156.47"/><polygon class="cls-3" points="397.65 156.47 357.46 78.23 397.65 0 436.89 78.23 397.65 156.47"/><polygon class="cls-6" points="476.58 471.68 436.39 393.45 476.58 315.21 515.82 393.45 476.58 471.68"/><polygon class="cls-3" points="516.29 393.45 476.11 315.21 516.29 236.98 555.54 315.21 516.29 393.45"/><polygon class="cls-10" points="436.86 393.45 396.67 315.21 436.86 236.98 476.11 315.21 436.86 393.45"/></g></g></g></g></svg>