<svg id="Calque_1" data-name="Calque 1" xmlns="http://www.w3.org/2000/svg" viewBox="0 0 469 469"><title>logo-lab-noir</title><path d="M234.5,0C105,0,0,105,0,234.5S105,469,234.5,469,469,364,469,234.5,364,0,234.5,0ZM74.11,331.16c-6.55,3.55-13.08,2.7-20.93-2.67-1,.87-1.89,1.8-2.91,2.63-1.84,1.48-3.83,2.65-6.35,2.25a5.09,5.09,0,0,1-4.36-3.79,20.67,20.67,0,0,1-.81-5.42c-.06-14.67,0-29.35,0-44,0-.2,0-.39.05-.8h1.5l6,.14c.06,2,.18,4,.19,5.95q0,18.54,0,37.07v1.27l.32.08a20,20,0,0,0,1.92-2.1,2.59,2.59,0,0,0,.25-1.55,29.48,29.48,0,0,1,.34-10.13c2-7.89,8.57-13.37,16.66-13.32,7.13.05,12.52,3.36,15.88,9.74a4.06,4.06,0,0,1-.76,5.09,24.06,24.06,0,0,1-5.11,3.89c-5,2.71-10.08,5.2-15.13,7.77-.27.14-.53.3-1,.53a10.46,10.46,0,0,0,15.62-5.34c.32-.9.7-1.06,1.56-.84,2,.53,4.11,1,6.36,1.48A18.14,18.14,0,0,1,74.11,331.16Zm295.58,12.31c-20.8,4.1-40.11,0-57.63-12-2.4-1.64-4.5-3.71-6.74-5.58l-1.05-.91c-1.59,1.62-3.12,3.24-4.71,4.79a76.3,76.3,0,0,1-14.75,11.62,29.66,29.66,0,0,1-13.79,4.4c-8.93.35-15.76-3.4-20.58-10.84-1.14-1.77-2-3.74-3-5.78-14.49,11-30.89,16.47-49.18,15.73s-34.31-7.2-47.93-19.92c-1.56,1.6-3.08,3.23-4.68,4.77-5.24,5.08-10.75,9.81-17.38,13-5.3,2.58-10.85,3.82-16.74,2.64-7.21-1.44-12.42-5.62-15.91-12a40,40,0,0,1-4.51-16.53c-.45-6.3-.69-12.62-.69-18.92q-.07-86.52,0-173v-1.72h32.46V306.53c.57-.49.9-.73,1.17-1,4-4.33,8.07-8.65,12.07-13,3.58-3.89,7.74-6.7,13.16-7.13,7.06-.57,12.45,2.5,16.61,8a62.93,62.93,0,0,0,9.27,10.16,36.42,36.42,0,0,0,16.59,7.93c16.85,3.37,31.12-1.4,42.33-14.43,7.69-8.94,10.69-19.56,9.7-31.32a42.18,42.18,0,0,0-12.11-26.86,38.56,38.56,0,0,0-26.16-11.75c-9.62-.54-18.39,1.79-26,7.86-8,6.41-12.64,14.92-14.56,24.91-.55,2.85-.66,5.79-1,8.68,0,.35-.08.7-.13,1.07H131.44c.13-2.51.18-4.94.39-7.35a77.29,77.29,0,0,1,11.26-34.43,68.6,68.6,0,0,1,36.61-29.47,73.41,73.41,0,0,1,68.47,11.71,3.64,3.64,0,0,0,2,.71c8.28.05,16.56,0,24.84,0h1.78V306.4c1.86-1.82,3.59-3.41,5.2-5.12,3.17-3.37,6.15-6.94,9.44-10.21,5.11-5.08,11.23-7,18.33-5,4.25,1.2,7.35,4,10.08,7.37a111.24,111.24,0,0,0,7.59,8.63c5.32,5.29,11.95,8.25,19.22,9.62,13.69,2.57,26-.63,36.52-9.76a40.8,40.8,0,0,0,14.53-29.4c.73-12.78-2.67-24.33-11.5-33.88a35.4,35.4,0,0,0-22.07-11.27,38.85,38.85,0,0,0-22.87,3.53c-10.87,5.43-17.53,14.36-20.87,25.9a46.3,46.3,0,0,0-1.74,11.59c0,.39-.05.78-.08,1.23H286.32V123.18h32.34v83.25c.5-.26.81-.39,1.09-.57a70.09,70.09,0,0,1,47.66-10.73c24.07,3,41.84,15.59,53.54,36.72a76.63,76.63,0,0,1,9.2,33.23,73.36,73.36,0,0,1-11,44C407.66,327.56,391.11,339.25,369.69,343.47Z"/><path d="M62.15,305.3c-3.92,1.8-6.26,6.4-5.59,11.29a138.22,138.22,0,0,0,16.9-8.68A9.85,9.85,0,0,0,62.15,305.3Z"/></svg>