<svg xmlns="http://www.w3.org/2000/svg" viewBox="0 0 152.04 225.76"><defs><style>.cls-1{fill:#8dc044;}.cls-2{fill:#1d8d37;}</style></defs><title>leaf_1</title><g id="Calque_2" data-name="Calque 2"><g id="Calque_1-2" data-name="Calque 1"><polygon class="cls-1" points="151.57 225.61 151.57 225.61 151.57 225.61 151.57 225.61"/><path class="cls-2" d="M151.09,225.76l.48-.15-.68-.47Z"/><path class="cls-2" d="M152,225.47c0-.07-.27-.88-.75-2.36.19,1.63.28,2.5.28,2.5Z"/><path class="cls-1" d="M98.5,146.65h17V133.81q-2-4.27-4-8.57c-4-8.5-8.48-17.3-13.24-26-12.59-9.79-35.41-19.61-72.81-11.1a8.49,8.49,0,0,1-2.19.4l.12-1c.17,0,.95-.18,1.85-.38C61.31,79,84,87.69,97.1,97.13c-20.43-36.83-46.53-71-73-71h-.73l0-1c15.06-.32,31.22,10,48,30.78,3.63,4.5,7.3,9.51,11,15,2.26-13.1-5.16-47.24-5.24-47.59l1-.22c.33,1.49,7.93,36.44,5.06,49,9.64,14.44,19.45,32.1,29.3,52.79,1,2.2,2.08,4.4,3.09,6.6V67.55C95.78,18.39,66.63-17,24.85,8.53c-51.63,31.56-14,89.87,33.27,138.12H87.59A72.11,72.11,0,0,1,98.5,146.65Z"/><path class="cls-2" d="M112.41,124.82C102.56,104.13,92.75,86.47,83.11,72c0,.07,0,.15,0,.21l-1-.23c.09-.36.17-.74.23-1.14-3.69-5.47-7.36-10.48-11-15-16.78-20.78-32.94-31.1-48-30.78l0,1h.73c26.48,0,52.58,34.19,73,71,.65.47,1.29.94,1.9,1.42l-.62.79-.12-.09c4.76,8.69,9.19,17.49,13.24,26q2,4.29,4,8.57v-2.39C114.49,129.22,113.45,127,112.41,124.82Z"/><path class="cls-2" d="M78.05,23.06l-1,.22c.08.35,7.5,34.49,5.24,47.59L83.11,72C86,59.5,78.38,24.55,78.05,23.06Z"/><path class="cls-2" d="M83.06,72.24c0-.06,0-.14,0-.21l-.79-1.16c-.06.4-.14.78-.23,1.14Z"/><path class="cls-2" d="M25.23,87.18c-.9.2-1.68.38-1.85.38l-.12,1a8.49,8.49,0,0,0,2.19-.4c37.4-8.51,60.22,1.31,72.81,11.1-.38-.71-.77-1.42-1.16-2.12C84,87.69,61.31,79,25.23,87.18Z"/><path class="cls-2" d="M99,98.55c-.61-.48-1.25-1-1.9-1.42.39.7.78,1.41,1.16,2.12l.12.09Z"/></g></g></svg>