<svg xmlns="http://www.w3.org/2000/svg" viewBox="0 0 72.14 54.68"><defs><style>.cls-1{fill:#1d1d1b;}</style></defs><title>logo_region</title><g id="Calque_2" data-name="Calque 2"><g id="Calque_1-2" data-name="Calque 1"><path class="cls-1" d="M16.78,30A1.82,1.82,0,0,1,15,28a1.84,1.84,0,1,1,3.66,0,1.82,1.82,0,0,1-1.83,2Zm0-5.71A3.72,3.72,0,1,0,20.5,28a3.68,3.68,0,0,0-3.72-3.72Z" transform="translate(-5.98 -5.91)"/><path class="cls-1" d="M25.4,31.7c2,0,3-.94,3-2.8V24.27H26.6v4.86a1.19,1.19,0,0,1-2.36,0V24.27H22.38v4.52c0,1.88,1.07,2.91,3,2.91Z" transform="translate(-5.98 -5.91)"/><path class="cls-1" d="M32.24,28.1V25.84h1.14a1,1,0,0,1,1,1.07,1,1,0,0,1-1,1.15l-1.16,0Zm1.36,1.41s.81,1.28,1.19,2c.1.19.13.19.19.19h2s0-.06-.08-.22l-1-1.67c-.23-.4-.43-.74-.56-.95l0,0,0,0a2,2,0,0,0,1-2,2.4,2.4,0,0,0-2.57-2.5H30.36s0,0,0,.06V31.7h1.91V29.51l1.35,0v0Z" transform="translate(-5.98 -5.91)"/><path class="cls-1" d="M9,30.24H8V28.52H9a.81.81,0,0,1,.81.86.77.77,0,0,1-.81.86Zm-1-4.5h.87a.67.67,0,0,1,.75.75.69.69,0,0,1-.75.75H8v-1.5Zm2.26,2.17-.22,0,.22-.06a1.61,1.61,0,0,0,1.3-1.62c0-1.21-.8-1.93-2.15-1.93H6.16c-.08,0-.08,0-.08.07V31.7H9.66a1.91,1.91,0,0,0,2.08-2,1.76,1.76,0,0,0-1.51-1.8Z" transform="translate(-5.98 -5.91)"/><path class="cls-1" d="M50.26,30a1.82,1.82,0,0,1-1.83-2,1.84,1.84,0,1,1,3.66,0,1.82,1.82,0,0,1-1.83,2Zm0-5.71A3.72,3.72,0,1,0,54,28a3.68,3.68,0,0,0-3.72-3.72Z" transform="translate(-5.98 -5.91)"/><path class="cls-1" d="M59.57,46.26s0,0,.06,0h1.84V38.83H59.56v2.71H57V38.89s0,0,0,0h-1.9v7.44h1.86s0,0,0,0,0,0,0,0v-3h2.6v3s0,0,0,0Z" transform="translate(-5.98 -5.91)"/><path class="cls-1" d="M15.44,46.48v0h1.92c.05,0,.05,0,.05-.11V43.69l2.8,0c.1,0,.11,0,.12-.09a13.64,13.64,0,0,0,0-1.57c0-.06,0-.09-.11-.09l-2.81,0V40.33l3.16,0h.05v-.08a10.28,10.28,0,0,0,0-1.57v0s0,0,0,0H15.47s0,0,0,0a.31.31,0,0,0,0,.1v7.59c0,.08,0,.11,0,.12h0v0Z" transform="translate(-5.98 -5.91)"/><path class="cls-1" d="M24.51,42.66V40.4h1.14a1,1,0,0,1,1,1.08,1,1,0,0,1-1,1.15l-1.15,0Zm1.35,1.41s.82,1.28,1.19,2c.1.2.13.2.19.2h2s.05,0,.06,0,0-.06-.08-.22c-.35-.56-.7-1.17-1-1.65s-.44-.76-.57-1l0,0,0,0a2,2,0,0,0,1-2,2.4,2.4,0,0,0-2.57-2.5H22.62s0,0,0,.06v7.38h1.86s0,0,0,0,0,0,0,0V44.07l1.34,0v0Z" transform="translate(-5.98 -5.91)"/><path class="cls-1" d="M32.84,43.92l0-.06.77-1.71.82,1.77Zm4.66,2.26c-.22-.48-3-6-3.67-7.35h-.18c-.82,1.54-2.52,5-3.64,7.34l0,.08H31.8c.12,0,.13,0,.16-.09s.29-.74.37-.92v0H35l0,0c.07.17.25.62.39,1a.08.08,0,0,0,.09.06h2s0,0,0-.08Z" transform="translate(-5.98 -5.91)"/><path class="cls-1" d="M50,46.27a3.53,3.53,0,0,0,3.28-2.17,0,0,0,0,0,0-.05l-.06,0-1.6-.44h0s0,0,0,0v0a1.59,1.59,0,0,1-1.53.91,1.79,1.79,0,0,1-1.81-2,1.83,1.83,0,0,1,1.78-2,1.64,1.64,0,0,1,1.59,1s0,0,0,0h0L53.15,41s.05,0,0-.14a3.38,3.38,0,0,0-3.26-2A3.72,3.72,0,0,0,50,46.27Z" transform="translate(-5.98 -5.91)"/><path class="cls-1" d="M9.71,60.59A3.54,3.54,0,0,0,13,58.42s0,0,0-.05l-.07,0-1.59-.43h0s0,0,0,0v0a1.58,1.58,0,0,1-1.52.91,1.79,1.79,0,0,1-1.82-2,1.83,1.83,0,0,1,1.79-2,1.64,1.64,0,0,1,1.58,1l0,0h0l1.58-.61s.05,0,0-.13a3.34,3.34,0,0,0-3.26-2,3.72,3.72,0,0,0,.06,7.43Z" transform="translate(-5.98 -5.91)"/><path class="cls-1" d="M18,58.86a2,2,0,1,1,1.82-2,1.81,1.81,0,0,1-1.82,2Zm0-5.7a3.72,3.72,0,1,0,3.72,3.72A3.68,3.68,0,0,0,18,53.16Z" transform="translate(-5.98 -5.91)"/><path class="cls-1" d="M28.37,57.3l.07,3.25s0,0,0,0h1.8v-.11c-.08-2.73-.15-4.52-.29-7.27a.08.08,0,0,0,0-.05h0l-.05,0c-1,1-2.83,2.89-3.28,3.42l0,0,0,0c-.5-.57-2.39-2.47-3.3-3.37l0,0a.14.14,0,0,0,0,.09C23.08,56,23,58.61,23,60.56v0h1.67c.08,0,.08,0,.08-.11l.08-3.18.07.07,1.68,1.7,0,0,.06,0,1.64-1.69.07-.07Z" transform="translate(-5.98 -5.91)"/><path class="cls-1" d="M37.41,54.69V53.16H31.46v1.53h0l2,0v5.92h1.95V54.67l1.94,0Z" transform="translate(-5.98 -5.91)"/><path class="cls-1" d="M33.93,11.69H32.84v2.15l1.1,0a1,1,0,0,0,.92-1.09.9.9,0,0,0-.93-1Zm3.52,5.8H35.51c-.09,0-.14,0-.23-.22-.38-.71-1.18-2-1.18-2l-1.26,0v2.07c0,.09,0,.1-.09.1H31c-.09,0-.09,0-.09-.1V10.15c0-.11.05-.1.09-.1h3.4a2.42,2.42,0,0,1,2.58,2.52,2,2,0,0,1-1,2c.29.45.91,1.56,1.55,2.59.13.22.1.3,0,.3Z" transform="translate(-5.98 -5.91)"/><path class="cls-1" d="M53,17.49a.29.29,0,0,1-.1,0l-1.17-.68a2.54,2.54,0,0,1-1.92.71,3.48,3.48,0,0,1-3.67-3.71,3.61,3.61,0,0,1,3.73-3.73A3.21,3.21,0,0,1,53,12c0,.1,0,.17,0,.19l-1.54.59c-.07,0-.13,0-.16-.09a1.48,1.48,0,0,0-1.4-.81,1.73,1.73,0,0,0-1.79,1.93,1.7,1.7,0,0,0,1.76,1.9,1.45,1.45,0,0,0,1.5-1.33c0-.06,0-.1.08-.1H53c.06,0,.09,0,.09.07v3.12s0,0-.1,0Z" transform="translate(-5.98 -5.91)"/><path class="cls-1" d="M57.14,17.49H55.32c-.1,0-.1,0-.1-.1V10.15c0-.11,0-.1.1-.1h1.82c.1,0,.11,0,.11.1v7.24c0,.09,0,.1-.11.1Z" transform="translate(-5.98 -5.91)"/><path class="cls-1" d="M62.85,11.85a1.74,1.74,0,0,0-1.74,1.93,1.75,1.75,0,1,0,3.48,0,1.75,1.75,0,0,0-1.74-1.93Zm0,5.64a3.72,3.72,0,1,1,3.68-3.71,3.65,3.65,0,0,1-3.68,3.71Z" transform="translate(-5.98 -5.91)"/><path class="cls-1" d="M74.41,17.48s0,0-.09,0c-1.57-1.17-4-3.43-4-3.43v3.36c0,.1,0,.1-.09.1H68.64a.11.11,0,0,1-.11-.11c0-2.65,0-4.48,0-7.22,0-.05,0-.07,0-.08s.06,0,.09,0c1.48,1.06,4,3.41,4,3.41V10.2c0-.12,0-.13.08-.13h1.58c.11,0,.11,0,.11.13,0,2,0,5,0,7.15,0,.07,0,.12,0,.13Z" transform="translate(-5.98 -5.91)"/><path class="cls-1" d="M44.72,46.26s0,0-.09,0c-1.57-1.17-4-3.43-4-3.43v3.36c0,.1,0,.1-.09.1H39a.11.11,0,0,1-.11-.11c-.05-2.65,0-4.48,0-7.22a.11.11,0,0,1,0-.09s.06,0,.09,0c1.48,1.06,4,3.41,4,3.41V39c0-.12,0-.13.08-.13h1.58c.1,0,.1,0,.1.13,0,2,0,5,0,7.15,0,.07,0,.12,0,.13Z" transform="translate(-5.98 -5.91)"/><path class="cls-1" d="M62.5,31.7a.45.45,0,0,1-.11,0L61.23,31a2.51,2.51,0,0,1-1.92.71A3.48,3.48,0,0,1,55.64,28a3.6,3.6,0,0,1,3.72-3.72,3.22,3.22,0,0,1,3.15,1.93c0,.09.05.17,0,.19L61,27c-.08,0-.13,0-.16-.08a1.49,1.49,0,0,0-1.41-.82A1.73,1.73,0,0,0,57.6,28a1.7,1.7,0,0,0,1.75,1.91,1.45,1.45,0,0,0,1.5-1.33c0-.06,0-.11.09-.11h1.57c.06,0,.08,0,.08.08v3.11s0,0-.09,0Z" transform="translate(-5.98 -5.91)"/><path class="cls-1" d="M45.18,31.7a.29.29,0,0,1-.11,0L43.91,31A2.51,2.51,0,0,1,42,31.7,3.48,3.48,0,0,1,38.32,28,3.6,3.6,0,0,1,42,24.27a3.23,3.23,0,0,1,3.15,1.93c0,.09.05.17,0,.19L43.62,27c-.07,0-.12,0-.15-.08a1.5,1.5,0,0,0-1.41-.82A1.73,1.73,0,0,0,40.28,28,1.7,1.7,0,0,0,42,29.91a1.46,1.46,0,0,0,1.5-1.33c0-.06,0-.11.08-.11h1.58c.06,0,.08,0,.08.08v3.11s0,0-.09,0Z" transform="translate(-5.98 -5.91)"/><path class="cls-1" d="M44.41,60.59H39.18c-.11,0-.12,0-.12-.15V53.27c0-.1,0-.11.1-.11H44.4c.11,0,.12,0,.12.14v1.34c0,.1,0,.15-.12.15l-3.42,0V56h3c.1,0,.11,0,.11.15v1.34c0,.13,0,.15-.11.15H41v1.27l3.43,0c.12,0,.12,0,.12.14v1.42c0,.13,0,.15-.12.15Z" transform="translate(-5.98 -5.91)"/><path class="cls-1" d="M44.41,17.49H39.18c-.11,0-.12,0-.12-.16V10.16c0-.09,0-.11.1-.11H44.4c.11,0,.12,0,.12.15v1.33c0,.1,0,.16-.12.16l-3.42,0v1.23h3c.1,0,.11,0,.11.16v1.34c0,.13,0,.15-.11.15H41v1.27l3.43,0c.12,0,.12,0,.12.14v1.41c0,.14,0,.16-.12.16Z" transform="translate(-5.98 -5.91)"/><path class="cls-1" d="M70.72,31.7s0,0-.09,0c-1.57-1.18-4-3.43-4-3.43V31.6c0,.09,0,.09-.1.09H64.94a.1.1,0,0,1-.1-.1c0-2.65,0-4.48,0-7.23,0-.05,0-.07,0-.08s0,0,.08,0c1.49,1.06,4,3.42,4,3.42v-3.3c0-.11,0-.12.08-.12h1.58c.1,0,.1,0,.1.12,0,2,0,5,0,7.16,0,.07,0,.12,0,.13Z" transform="translate(-5.98 -5.91)"/><path class="cls-1" d="M68.78,46.27H63.55c-.11,0-.12,0-.12-.16V38.94c0-.1,0-.11.1-.11h5.24c.11,0,.12,0,.12.15v1.33c0,.1,0,.16-.12.16l-3.42,0v1.23h3c.1,0,.11,0,.11.16v1.33c0,.14,0,.16-.11.16h-3v1.27l3.43,0c.12,0,.12,0,.12.14v1.41c0,.14,0,.16-.12.16Z" transform="translate(-5.98 -5.91)"/><path class="cls-1" d="M78,31.7H72.77c-.11,0-.12,0-.12-.15V24.38c0-.1,0-.11.1-.11H78c.11,0,.12,0,.12.14v1.34c0,.1,0,.15-.12.15l-3.42,0v1.24h3c.1,0,.11,0,.11.15V28.6c0,.13,0,.15-.11.15h-3V30L78,30c.12,0,.12,0,.12.15v1.41c0,.13,0,.15-.12.15Z" transform="translate(-5.98 -5.91)"/><polygon class="cls-1" points="38.8 44.59 32.82 44.59 32.82 43.02 38.8 43.02 38.8 44.59 38.8 44.59"/><polygon class="cls-1" points="38.8 30.18 32.82 30.18 32.82 28.61 38.8 28.61 38.8 30.18 38.8 30.18"/><polygon class="cls-1" points="38.78 15.77 32.8 15.77 32.8 14.2 38.78 14.2 38.78 15.77 38.78 15.77"/><polygon class="cls-1" points="38.8 1.57 32.82 1.57 32.82 0 38.8 0 38.8 1.57 38.8 1.57"/></g></g></svg>