<svg xmlns="http://www.w3.org/2000/svg" xmlns:xlink="http://www.w3.org/1999/xlink" viewBox="0 0 83.94 77.29"><defs><style>.cls-1{fill:url(#Dégradé_sans_nom_174);}.cls-2{fill:url(#Dégradé_sans_nom_167);}.cls-3{fill:none;stroke:#ed6936;stroke-linecap:round;stroke-miterlimit:10;stroke-width:3px;}.cls-4{fill:url(#Dégradé_sans_nom_174-2);}.cls-5{fill:url(#Dégradé_sans_nom_174-3);}.cls-6{fill:#ed6936;}</style><linearGradient id="Dégradé_sans_nom_174" x1="48.46" y1="9.78" x2="20.82" y2="19.94" gradientUnits="userSpaceOnUse"><stop offset="0" stop-color="#cb8732"/><stop offset="1" stop-color="#fde4d1"/></linearGradient><linearGradient id="Dégradé_sans_nom_167" x1="74.62" y1="41.82" x2="20.65" y2="66.73" gradientUnits="userSpaceOnUse"><stop offset="0" stop-color="#cb8732"/><stop offset="1" stop-color="#d7db2d"/></linearGradient><linearGradient id="Dégradé_sans_nom_174-2" x1="52.85" y1="25.81" x2="26.58" y2="35.47" xlink:href="#Dégradé_sans_nom_174"/><linearGradient id="Dégradé_sans_nom_174-3" x1="39.57" y1="29.85" x2="39.54" y2="29.86" xlink:href="#Dégradé_sans_nom_174"/></defs><title>toupie</title><g id="Calque_2" data-name="Calque 2"><g id="Calque_1-2" data-name="Calque 1"><path class="cls-1" d="M39.55,29.86h0c-4.34,6.38-12.43,4.21-12.43,4.21L19.44,11.23a12.86,12.86,0,0,1-.78-6.61A5.58,5.58,0,0,1,22.72.41c4.82-1.63,7.53,1.82,9.16,6.64Z"/><path class="cls-2" d="M81.76,43.3c.93,2.76-8,8.42-21.62,14.19-4.19,1.77-5.69,5-6.87,11.48-2.85,15.57-13.44,4.52-13.44,4.52-4-4.07-8-6.11-12.42-5C13.08,72.14,2.54,73,1.61,70.26c-.79-2.35,5.56-6.8,15.86-11.62,6.91-3.24,12.75-11.53,11.42-18.93a12,12,0,0,0,12.68-4.27c3.41,6.7,13.07,9.78,20.54,8.18C73.22,41.24,81,40.94,81.76,43.3Z"/><path class="cls-3" d="M62.09,43.54c11.48-2.54,19.5-2.95,20.28-.61,1.24,3.69-15.84,12.76-38.16,20.26S2.8,73.81,1.56,70.12c-.77-2.29,5.59-6.69,15.9-11.49"/><path class="cls-4" d="M27.12,34.07l12.43-4.21C35.21,36.24,27.12,34.07,27.12,34.07Z"/><path class="cls-5" d="M39.56,29.86h0Z"/><path class="cls-6" d="M41.56,35.44a12,12,0,0,1-12.67,4.27,10.67,10.67,0,0,0-.42-1.64l-1.35-4s7.22.06,12.43-4.21l1.35,4A12.81,12.81,0,0,0,41.56,35.44Z"/></g></g></svg>