<svg xmlns="http://www.w3.org/2000/svg" xmlns:xlink="http://www.w3.org/1999/xlink" viewBox="0 0 32 32"><defs><style>.cls-1{fill:url(#Dégradé_sans_nom_6);}.cls-2{fill:#fff;}</style><linearGradient id="Dégradé_sans_nom_6" x1="30.69" y1="-1.9" x2="9.36" y2="24.1" gradientUnits="userSpaceOnUse"><stop offset="0" stop-color="#bde0da"/><stop offset="1" stop-color="#006285"/></linearGradient></defs><title>Favicon</title><g id="Calque_2" data-name="Calque 2"><g id="Calque_1-2" data-name="Calque 1"><rect class="cls-1" width="32" height="32"/><path class="cls-2" d="M8.42,8.77h.23a9.84,9.84,0,0,1,4.5-2.66,27.56,27.56,0,0,1,4.44-.46,5.44,5.44,0,0,1,1.74.2c1.12.36,4.9.65,4.9,3.91l0,.59c-.46,3.32-1.55,4.14-1.84,4.37-.1.1-2,1.32-2,1.32s4.18.92,4.18,4.07c0,.26-.07.56-.1.86-.79,3.87-2.93,6-5.95,6.14,0,0-.56,0-1.35,0a13.63,13.63,0,0,1-3.65-.4,28.22,28.22,0,0,1-4.6-2.3l-.66-.76v-.36l1.94-2.82s.26-.56.56-.56a18.37,18.37,0,0,1,2.2.95,19.63,19.63,0,0,0,2.76.89c.46,0,2.07-.13,2.17-1.42a1.57,1.57,0,0,0-1.48-1.61l-2.46-.16-.66.26s-.33-.26-.33-.39.23-2.76.23-2.76a7.55,7.55,0,0,1-.23-1.42c0-.16,0-.26.1-.33l1.71-.16S18,13.67,18,12.68l0-.13c-.3-.89-1.74-1.28-2.86-1.28a2.32,2.32,0,0,0-.69.07,17.15,17.15,0,0,0-2.66,1.15s-.1.42-.36.46a1.18,1.18,0,0,1-.79-.56C10.49,12.12,9,9.63,9,9.63Z"/></g></g></svg>