<svg xmlns="http://www.w3.org/2000/svg" xmlns:xlink="http://www.w3.org/1999/xlink" viewBox="0 0 77.91 75.98"><defs><style>.cls-1,.cls-3{fill:none;stroke:#843b21;stroke-width:0.5px;}.cls-1{stroke-miterlimit:10;}.cls-2{fill:url(#Dégradé_sans_nom_46);}.cls-3{stroke-linecap:round;stroke-linejoin:round;}</style><linearGradient id="Dégradé_sans_nom_46" x1="48.56" y1="71.1" x2="35.89" y2="11.11" gradientUnits="userSpaceOnUse"><stop offset="0" stop-color="#d46033"/><stop offset="1" stop-color="#fcc980"/></linearGradient></defs><title>lyre</title><g id="Calque_2" data-name="Calque 2"><g id="Calque_1-2" data-name="Calque 1"><line class="cls-1" x1="46.1" y1="15" x2="53.93" y2="53.37"/><line class="cls-1" x1="23.3" y1="19.92" x2="31.14" y2="58.29"/><line class="cls-1" x1="27.86" y1="18.94" x2="35.7" y2="57.31"/><line class="cls-1" x1="32.42" y1="17.95" x2="40.26" y2="56.32"/><line class="cls-1" x1="36.98" y1="16.97" x2="44.82" y2="55.34"/><line class="cls-1" x1="41.54" y1="15.98" x2="49.37" y2="54.35"/><line class="cls-1" x1="50.65" y1="14.01" x2="58.49" y2="52.38"/><path class="cls-2" d="M75.77,44.25c-4-10.32-9.29-20-11.25-28.24h0a4.88,4.88,0,0,0,1.42-.15c5.45-1.31,11.84-7.94,2.34-14.26-7-4.65-14,1.51-14.61,9.74L19.75,18.41v0C16.11,11,7.2,8,2.5,15.19c-6.32,9.66,2.1,13.16,7.61,12.16A3.44,3.44,0,0,0,13,25.24c0,1.08.33,25.48-.54,28.17S12.29,80.8,30.35,75.14s19.83-5.66,34.4-7S79.73,54.58,75.77,44.25ZM61.85,58.43s-3.49-2.45-.92-5.57c0,0-13.7-3.28-32,6.46h0c3.56,1.83,1.28,5.49,1.28,5.49-12.63,8.66-10.37-24-8.91-37.31a16.69,16.69,0,0,0-.71-7.07l0,0,33.08-6.8h0a16.67,16.67,0,0,0,2.07,6.87C62.18,32.19,76.77,61.27,61.85,58.43Z"/><path class="cls-3" d="M66.38,8.35s-2.26-2.89-4.45,0-.9,10.4,6.17,6.69c0,0,6.43-2.71,4.7-8.5"/><path class="cls-3" d="M6.71,20.56S7.86,17,10.9,19s4.34,9.44-3.54,8.48c0,0-6.89-.42-7.11-6.08"/><path class="cls-3" d="M28.92,59.32s15-9,32-6.46"/></g></g></svg>