<svg xmlns="http://www.w3.org/2000/svg" viewBox="0 0 591.75 502.43"><defs><style>.cls-1{isolation:isolate;}.cls-2{mix-blend-mode:overlay;}.cls-3{fill:#b3b3b3;}.cls-4{fill:#6ec6d9;}.cls-5{fill:#ee7aaa;}.cls-6{fill:#d4155b;}.cls-7{fill:#eb5b27;}.cls-8{fill:#c1282e;}.cls-9{fill:#2babe2;}.cls-10{fill:#c7b29a;}</style></defs><title>triangles_1</title><g class="cls-1"><g id="Calque_2" data-name="Calque 2"><g id="Calque_1-2" data-name="Calque 1"><g class="cls-2"><polygon class="cls-3" points="254.34 333.34 211.53 250 254.34 166.67 296.14 250 254.34 333.34"/><polygon class="cls-4" points="296.65 250 253.84 166.67 296.65 83.33 338.45 166.67 296.65 250"/><polygon class="cls-3" points="212.04 250 169.23 166.67 212.04 83.33 253.84 166.67 212.04 250"/><polygon class="cls-3" points="381.26 416.68 338.45 333.34 381.26 250 423.06 333.34 381.26 416.68"/><polygon class="cls-3" points="423.57 333.34 380.76 250 423.57 166.67 465.37 250 423.57 333.34"/><polygon class="cls-3" points="338.95 333.34 296.14 250 338.95 166.67 380.76 250 338.95 333.34"/><polygon class="cls-5" points="85.12 331.7 42.31 248.37 85.12 165.03 126.92 248.37 85.12 331.7"/><polygon class="cls-6" points="127.42 248.37 84.61 165.03 127.42 81.7 169.23 165.03 127.42 248.37"/><polygon class="cls-3" points="42.81 248.37 0 165.03 42.81 81.7 84.61 165.03 42.81 248.37"/><polygon class="cls-7" points="169.73 500.01 126.92 416.68 169.73 333.34 211.53 416.68 169.73 500.01"/><polygon class="cls-8" points="212.04 416.68 169.23 333.34 212.04 250 253.84 333.34 212.04 416.68"/><polygon class="cls-9" points="127.42 416.68 84.61 333.34 127.42 250 169.23 333.34 127.42 416.68"/><polygon class="cls-3" points="465.87 250 423.06 166.67 465.87 83.33 507.68 166.67 465.87 250"/><polygon class="cls-3" points="508.18 166.67 465.37 83.33 508.18 0 549.98 83.33 508.18 166.67"/><polygon class="cls-3" points="423.57 166.67 380.76 83.33 423.57 0 465.37 83.33 423.57 166.67"/><polygon class="cls-6" points="507.64 502.43 464.83 419.1 507.64 335.76 549.45 419.1 507.64 502.43"/><polygon class="cls-3" points="549.95 419.1 507.14 335.76 549.95 252.43 591.75 335.76 549.95 419.1"/><polygon class="cls-10" points="465.34 419.1 422.53 335.76 465.34 252.43 507.14 335.76 465.34 419.1"/></g></g></g></g></svg>